<svg width="278" height="60" viewBox="0 0 278 60" fill="none" xmlns="http://www.w3.org/2000/svg">
<path d="M100.745 18.2679C100.745 22.1088 98.3607 25.2216 91.7711 25.2216H80.0494V1.64526H91.9366C97.4005 1.64526 100.082 4.5591 100.082 7.93663C100.082 9.98941 99.2217 12.0425 97.2018 13.0359C98.249 13.452 99.1468 14.1735 99.7787 15.1065C100.411 16.0395 100.747 17.1411 100.745 18.2679V18.2679ZM86.2745 6.71139V11.1818H91.3406C91.9281 11.2087 92.5023 11.0011 92.9367 10.6046C93.3712 10.2082 93.6303 9.65536 93.6572 9.06783C93.6598 9.01087 93.6602 8.95388 93.6584 8.89685C93.6584 7.5721 92.6322 6.71139 91.3406 6.71139H86.2745ZM94.3208 17.9365C94.3208 16.6453 93.4269 15.7843 91.8375 15.7843H86.2745V20.1552H91.8043C93.4597 20.1552 94.3208 19.4265 94.3208 17.9365Z" fill="black"/>
<path d="M125.544 25.2216L125.014 9.52606C124.65 10.9168 124.253 12.3407 123.789 13.7646L120.08 25.2216H114.054L110.345 13.7646C109.882 12.3739 109.518 10.9831 109.153 9.59206L108.624 25.2216H102.63L103.59 1.64526H112.2L117.067 17.9701L121.935 1.64526H130.544L131.505 25.2216H125.544Z" fill="black"/>
<path d="M167.297 1.64526C165.376 9.62523 163.323 17.1753 160.873 25.2216H153.29L150.045 10.4199L146.767 25.2216H139.184C136.734 17.1753 134.681 9.62523 132.727 1.64526H139.449C140.575 6.67822 141.866 12.0757 143.191 17.3073L146.535 1.64526H153.522L156.866 17.3073C158.191 12.0757 159.482 6.67822 160.608 1.64526H167.297Z" fill="black"/>
<path d="M101.999 58.3527L101.469 42.6595C101.105 44.0502 100.708 45.4738 100.244 46.8974L96.5362 58.3527H90.5105L86.8026 46.8974C86.3393 45.507 85.9751 44.1165 85.6109 42.7261L85.0809 58.3527H79.0884L80.0486 34.78H88.6567L93.5235 51.1021L98.3903 34.78H106.998L107.958 58.3527H101.999Z" fill="black"/>
<path d="M109.681 46.5665C109.681 39.0509 115.971 34.2505 122.758 34.2505C129.545 34.2505 135.836 39.0509 135.836 46.5665C135.836 54.0821 129.545 58.8825 122.758 58.8825C115.971 58.8825 109.681 54.0821 109.681 46.5665ZM129.413 46.5665C129.406 44.8003 128.698 43.1091 127.445 41.8645C126.192 40.6199 124.496 39.9239 122.73 39.9293C120.964 39.9348 119.272 40.6414 118.026 41.8937C116.781 43.146 116.084 44.8416 116.088 46.6078C116.092 48.374 116.798 50.0662 118.049 51.3125C119.301 52.5588 120.996 53.2572 122.762 53.2542C124.528 53.2512 126.221 52.547 127.468 51.2964C128.715 50.0458 129.415 48.3512 129.413 46.585L129.413 46.5665Z" fill="black"/>
<path d="M155.866 40.1107H149.013V58.3529H142.722V40.1107H135.902V34.7803H155.866V40.1107Z" fill="black"/>
<path d="M155.933 46.5665C155.933 39.0509 162.223 34.2505 169.01 34.2505C175.797 34.2505 182.088 39.0509 182.088 46.5665C182.088 54.0821 175.797 58.8825 169.01 58.8825C162.223 58.8825 155.933 54.0821 155.933 46.5665ZM175.665 46.5665C175.658 44.8003 174.951 43.1091 173.697 41.8646C172.444 40.62 170.748 39.924 168.982 39.9295C167.216 39.9351 165.524 40.6416 164.279 41.894C163.033 43.1463 162.336 44.8419 162.34 46.6081C162.345 48.3743 163.05 50.0664 164.302 51.3127C165.553 52.559 167.248 53.2573 169.014 53.2542C170.781 53.2511 172.473 52.5468 173.72 51.2962C174.967 50.0456 175.667 48.3509 175.665 46.5847L175.665 46.5665Z" fill="black"/>
<path d="M204.866 58.2202V58.3529H198.113C197.662 57.046 197.143 55.764 196.556 54.5124C195.989 53.3405 195.336 52.2118 194.603 51.1355H190.663V58.3529H184.373V34.7803H194.703C201.357 34.7803 203.84 38.7203 203.84 42.5277C203.874 43.8255 203.564 45.1092 202.942 46.2487C202.32 47.3882 201.408 48.343 200.298 49.0164C201.274 50.4253 202.137 51.9087 202.88 53.453C203.626 55.0057 204.289 56.597 204.866 58.2202H204.866ZM190.663 45.9706H194.669C196.358 45.9706 197.649 44.8783 197.649 42.9579C197.649 41.071 196.358 39.9452 194.669 39.9452H190.663V45.9706Z" fill="black"/>
<path d="M227.744 58.2202V58.3529H220.99C220.54 57.046 220.02 55.764 219.434 54.5124C218.866 53.3405 218.213 52.2118 217.481 51.1355H213.541V58.3529H207.25V34.7803H217.58C224.235 34.7803 226.718 38.7203 226.718 42.5277C226.752 43.8255 226.442 45.1092 225.82 46.2487C225.198 47.3882 224.285 48.343 223.175 49.0164C224.151 50.4253 225.015 51.9087 225.758 53.453C226.504 55.0057 227.167 56.597 227.744 58.2202H227.744ZM213.541 45.9706H217.547C219.235 45.9706 220.527 44.8783 220.527 42.9579C220.527 41.071 219.235 39.9452 217.547 39.9452H213.541V45.9706Z" fill="black"/>
<path d="M245.688 53.7843H236.882C236.485 55.3071 236.087 56.8302 235.723 58.3529H229.4C231.485 49.7448 233.902 42.1303 237.047 34.7803H245.589C248.734 42.1303 251.151 49.7448 253.204 58.3529H246.847C246.483 56.8302 246.085 55.3071 245.688 53.7843ZM244.165 48.3212C243.238 45.0435 242.245 41.998 241.285 39.5479C240.292 41.998 239.332 45.0435 238.372 48.3212H244.165Z" fill="black"/>
<path d="M277.505 46.5666C277.505 53.2211 272.407 58.3529 264.13 58.3529H255.158V34.7803H264.13C272.407 34.7803 277.505 39.9121 277.505 46.5666ZM271.082 46.5666C271.082 42.2959 267.771 40.2099 264.13 40.2099H261.448V52.9233H264.13C267.771 52.9233 271.082 50.8373 271.082 46.5666Z" fill="black"/>
<path d="M29.9622 0.532471C22.147 0.532526 14.6519 3.63716 9.1257 9.1634C3.59952 14.6896 0.494967 22.1848 0.494995 30C0.495023 37.8153 3.59963 45.3104 9.12585 50.8366C14.6521 56.3628 22.1472 59.4674 29.9624 59.4674C37.7777 59.4674 45.2728 56.3628 50.799 50.8366C56.3253 45.3104 59.4299 37.8153 59.4299 30C59.4299 22.1848 56.3254 14.6896 50.7992 9.1634C45.273 3.63716 37.7779 0.532526 29.9627 0.532471L29.9622 0.532471ZM57.5136 30.0001C57.5136 35.4493 55.8977 40.776 52.8703 45.3068C49.843 49.8376 45.54 53.3689 40.5057 55.4542C35.4713 57.5395 29.9317 58.0851 24.5872 57.0221C19.2428 55.959 14.3336 53.335 10.4805 49.4819C6.62739 45.6287 4.00338 40.7196 2.94031 35.3751C1.87724 30.0307 2.42284 24.491 4.50814 19.4567C6.59343 14.4224 10.1248 10.1194 14.6555 7.09205C19.1863 4.06467 24.5131 2.44881 29.9622 2.44881C33.5803 2.44881 37.163 3.16145 40.5057 4.54603C43.8484 5.93061 46.8856 7.96003 49.444 10.5184C52.0023 13.0768 54.0318 16.114 55.4163 19.4567C56.8009 22.7994 57.5136 26.382 57.5136 30.0001Z" fill="black"/>
<path d="M29.9623 12.5256V13.4835C34.3412 13.4885 38.5393 15.2302 41.6357 18.3266C44.732 21.423 46.4737 25.6212 46.4786 30.0001H47.4367C47.4367 25.3656 45.5956 20.9209 42.3185 17.6438C39.0414 14.3667 34.5968 12.5257 29.9623 12.5256ZM29.9623 46.5164C25.5834 46.5114 21.3853 44.7697 18.289 41.6734C15.1926 38.5771 13.4509 34.379 13.446 30.0001H12.4875C12.4874 32.2949 12.9394 34.5673 13.8176 36.6874C14.6958 38.8075 15.983 40.7339 17.6056 42.3566C19.2283 43.9793 21.1547 45.2665 23.2748 46.1447C25.395 47.0229 27.6673 47.4749 29.9621 47.4749H29.9623" fill="black"/>
<path d="M44.2436 17.4986C44.6434 17.9288 45.2199 18.6219 45.5441 19.0425L51.5113 15.2543C51.2131 14.8641 50.7391 14.2715 50.3831 13.855L46.6048 16.3537L46.3473 16.5763L46.5402 16.2949L48.2083 12.9642L47.0292 11.7851L43.6978 13.4539L43.4171 13.6457L43.6407 13.3872L46.1408 9.60991C45.7014 9.23547 45.2787 8.89248 44.7391 8.47632L40.9502 14.4391C41.4303 14.8087 42.0626 15.3504 42.4654 15.7194L46.0317 13.8694L46.2598 13.7015L46.0919 13.9299L44.2436 17.4986Z" fill="black"/>
<path d="M30.7046 9.94257L32.3351 6.29079L32.4387 5.96729L32.4093 6.30549L32.5809 11.1852C33.1527 11.2396 33.7432 11.3186 34.3263 11.4154L34.0609 4.18671C33.246 4.09712 32.4353 4.03249 31.6241 3.99829L30.0186 7.98451L29.9622 8.28031L29.9054 7.98451L28.2999 3.99829C27.4892 4.03249 26.678 4.09712 25.8631 4.18671L25.5978 11.4154C26.1808 11.3186 26.7714 11.2396 27.3431 11.1852L27.5148 6.30549L27.4851 5.96729L27.5893 6.29079L29.2195 9.94257H30.7046Z" fill="black"/>
<path d="M17.5165 15.7028C18.4586 14.7101 18.9934 13.5624 18.0496 12.4672C17.7899 12.1866 17.4489 11.9942 17.0745 11.9169C16.7 11.8397 16.3108 11.8814 15.9612 12.0363L15.8904 12.0647L15.9137 12.0024C16.0024 11.6763 15.9933 11.3313 15.8874 11.0103C15.7815 10.6894 15.5837 10.4066 15.3183 10.1972C15.1337 10.0519 14.922 9.94463 14.6956 9.88159C14.4692 9.81855 14.2326 9.801 13.9994 9.82996C13.1148 9.9199 12.4329 10.5245 10.5784 12.5927C10.0197 13.216 9.20514 14.2005 8.71545 14.8386L13.8072 19.6692C15.4992 17.799 16.1866 17.1038 17.5165 15.7028ZM10.8732 14.5216C11.6845 13.5216 12.5562 12.5722 13.4834 11.6786C13.6314 11.5249 13.8136 11.4083 14.0151 11.3383C14.0959 11.32 14.1796 11.3178 14.2612 11.3318C14.3429 11.3458 14.421 11.3758 14.491 11.42C14.5611 11.4642 14.6218 11.5217 14.6696 11.5894C14.7175 11.657 14.7515 11.7334 14.7698 11.8142L14.7726 11.827C14.788 12.0027 14.7618 12.1796 14.696 12.3433C14.6302 12.507 14.5268 12.6529 14.394 12.7691C13.8513 13.3802 11.8635 15.4613 11.8635 15.4613L10.8732 14.5216ZM12.8662 16.4127C12.8662 16.4127 14.8037 14.3657 15.435 13.7102C15.6011 13.5114 15.7991 13.3416 16.0207 13.2075C16.1254 13.1469 16.2446 13.1162 16.3655 13.1187C16.4864 13.1212 16.6043 13.1567 16.7064 13.2215C16.8095 13.2886 16.8896 13.3856 16.936 13.4996C16.9825 13.6135 16.993 13.7389 16.9662 13.8589C16.8673 14.1581 16.6949 14.4277 16.4649 14.643C16.1982 14.9296 13.9006 17.3883 13.8975 17.3914L12.8662 16.4127Z" fill="black"/>
<path d="M29.9623 12.5256V30.0001H12.4878C12.4866 27.7065 12.9373 25.4351 13.8139 23.3156C14.6906 21.1961 15.9761 19.2701 17.5971 17.6474C19.2181 16.0248 21.1429 14.7373 23.2615 13.8585C25.38 12.9797 27.651 12.5268 29.9446 12.5256C29.9505 12.5256 29.9564 12.5256 29.9623 12.5256Z" fill="#0066B1"/>
<path d="M47.437 30.0002C47.4381 32.2939 46.9876 34.5653 46.1109 36.6848C45.2343 38.8043 43.9487 40.7304 42.3277 42.3531C40.7067 43.9757 38.782 45.2633 36.6634 46.1421C34.5448 47.0209 32.2739 47.4739 29.9802 47.475H29.9622V30.0002H47.437Z" fill="#0066B1"/>
</svg>
