<svg width="38" height="38" viewBox="0 0 38 38" fill="none" xmlns="http://www.w3.org/2000/svg">
<rect width="38" height="38" fill="#50BCEA"/>
<path d="M21.2 9.875C19.9734 9.875 18.797 10.3623 17.9296 11.2296C17.0623 12.097 16.575 13.2734 16.575 14.5V17.075H14.1C13.9757 17.075 13.875 17.1757 13.875 17.3V20.7C13.875 20.8243 13.9757 20.925 14.1 20.925H16.575V27.9C16.575 28.0243 16.6757 28.125 16.8 28.125H20.2C20.3243 28.125 20.425 28.0243 20.425 27.9V20.925H22.9219C23.0252 20.925 23.1152 20.8547 23.1402 20.7546L23.9902 17.3546C24.0257 17.2126 23.9183 17.075 23.7719 17.075H20.425V14.5C20.425 14.2945 20.5067 14.0973 20.652 13.952C20.7973 13.8067 20.9945 13.725 21.2 13.725H23.8C23.9243 13.725 24.025 13.6243 24.025 13.5V10.1C24.025 9.97574 23.9243 9.875 23.8 9.875H21.2Z" fill="#1A3D77"/>
</svg>
