<svg width="74" height="74" viewBox="0 0 74 74" fill="none" xmlns="http://www.w3.org/2000/svg">
<path d="M52.0609 42.6994C52.0609 39.6502 54.5414 37.1702 57.59 37.1702C60.6391 37.1702 63.1197 39.6502 63.1197 42.6994C63.1197 45.7485 60.6391 48.229 57.59 48.229C54.5414 48.229 52.0609 45.7485 52.0609 42.6994Z" fill="#50BCEA"/>
<path d="M61.7586 55.0645C61.981 55.1522 62.1715 55.2749 62.3303 55.4331C62.4885 55.5918 62.6112 55.7824 62.6984 56.0048C62.7861 56.2273 62.8294 56.4758 62.8294 56.7494V58.2128C62.8294 58.4875 62.7861 58.7355 62.6984 58.9584C62.6112 59.1808 62.4879 59.3714 62.3271 59.5301C62.1674 59.6878 61.9758 59.811 61.7533 59.8982C61.5309 59.9859 61.284 60.0293 61.014 60.0293H59.1438C58.8739 60.0293 58.6269 59.9859 58.4045 59.8982C58.1821 59.811 57.9905 59.6878 57.8302 59.5301C57.6699 59.3714 57.5467 59.1808 57.459 58.9584C57.3718 58.7355 57.3284 58.4875 57.3284 58.2128V56.7494C57.3284 56.4758 57.3718 56.2273 57.459 56.0048C57.5467 55.7824 57.6699 55.5918 57.8302 55.4331C57.9905 55.2749 58.1821 55.1522 58.4045 55.0645C58.6269 54.9773 58.8739 54.934 59.1438 54.934H61.0245C61.2913 54.934 61.5361 54.9773 61.7586 55.0645Z" fill="#50BCEA"/>
<path d="M45.0719 55.4331C44.9131 55.2749 44.7226 55.1522 44.5002 55.0645C44.2777 54.9773 44.0329 54.934 43.7661 54.934H41.8854C41.6155 54.934 41.3685 54.9773 41.1461 55.0645C40.9237 55.1522 40.7321 55.2749 40.5718 55.4331C40.4115 55.5918 40.2883 55.7824 40.2006 56.0048C40.1134 56.2273 40.07 56.4758 40.07 56.7494V58.2128C40.07 58.4875 40.1134 58.7355 40.2006 58.9584C40.2883 59.1808 40.4115 59.3714 40.5718 59.5301C40.7321 59.6878 40.9237 59.811 41.1461 59.8982C41.3685 59.9859 41.6155 60.0293 41.8854 60.0293H43.7556C44.0256 60.0293 44.2725 59.9859 44.4949 59.8982C44.7173 59.811 44.909 59.6878 45.0687 59.5301C45.2295 59.3714 45.3528 59.1808 45.4399 58.9584C45.5277 58.7355 45.571 58.4875 45.571 58.2128V56.7494C45.571 56.4758 45.5277 56.2273 45.4399 56.0048C45.3528 55.7824 45.2301 55.5918 45.0719 55.4331Z" fill="#50BCEA"/>
<path d="M16.2011 37.1702C13.152 37.1702 10.6714 39.6502 10.6714 42.6994C10.6714 45.7485 13.152 48.229 16.2011 48.229C19.2497 48.229 21.7303 45.7485 21.7303 42.6994C21.7303 39.6502 19.2497 37.1702 16.2011 37.1702Z" fill="#50BCEA"/>
<path fill-rule="evenodd" clip-rule="evenodd" d="M17.7602 0C7.95124 0 0 7.95124 0 17.7602V74H56.2404C66.0488 74 74 66.0488 74 56.2404V0H17.7602ZM57.59 50.8396C53.0946 50.8396 49.4503 47.1953 49.4503 42.6994C49.4503 38.204 53.0946 34.5596 57.59 34.5596C62.0854 34.5596 65.7303 38.204 65.7303 42.6994C65.7303 47.1953 62.0854 50.8396 57.59 50.8396ZM64.2182 58.2129C64.2182 58.6797 64.1378 59.1088 63.9775 59.5004C63.8173 59.892 63.5943 60.2303 63.3103 60.5149C63.0252 60.8 62.6879 61.0219 62.2979 61.1801C61.9079 61.3383 61.4834 61.4181 61.0245 61.4181H59.1438C58.6844 61.4181 58.2594 61.3383 57.8678 61.1801C57.4762 61.0219 57.1373 60.8 56.8528 60.5149C56.5677 60.2303 56.3448 59.892 56.1824 59.5004C56.0206 59.1088 55.9391 58.6797 55.9391 58.2129V56.7494C55.9391 56.2873 56.0206 55.8587 56.1824 55.465C56.3448 55.0719 56.5677 54.7335 56.8528 54.4506C57.1373 54.1676 57.4762 53.9457 57.8678 53.7859C58.2594 53.6251 58.6844 53.5452 59.1438 53.5452H61.0245C61.4834 53.5452 61.9079 53.6251 62.2979 53.7859C62.6879 53.9457 63.0252 54.1676 63.3103 54.4506C63.5943 54.7335 63.8173 55.0719 63.9775 55.465C64.1378 55.8587 64.2182 56.2873 64.2182 56.7494V58.2129ZM55.2066 55.0406H52.1465V61.3111H50.7582V55.0406H47.6918V53.6522H55.2066V55.0406ZM46.9598 58.2129C46.9598 58.6797 46.8794 59.1088 46.7191 59.5004C46.5594 59.892 46.3364 60.2303 46.0519 60.5149C45.7668 60.8 45.4295 61.0219 45.0395 61.1801C44.6495 61.3383 44.225 61.4181 43.7661 61.4181H41.8854C41.4265 61.4181 41.001 61.3383 40.6094 61.1801C40.2178 61.0219 39.8794 60.8 39.5949 60.5149C39.3098 60.2303 39.0864 59.892 38.9245 59.5004C38.7621 59.1088 38.6812 58.6797 38.6812 58.2129V56.7494C38.6812 56.2873 38.7621 55.8587 38.9245 55.465C39.0864 55.0719 39.3098 54.7335 39.5949 54.4506C39.8794 54.1676 40.2178 53.9457 40.6094 53.7859C41.001 53.6251 41.4265 53.5452 41.8854 53.5452H43.7661C44.225 53.5452 44.6495 53.6251 45.0395 53.7859C45.4295 53.9457 45.7668 54.1676 46.0519 54.4506C46.3364 54.7335 46.5594 55.0719 46.7191 55.465C46.8794 55.8587 46.9598 56.2873 46.9598 56.7494V58.2129ZM37.3456 61.3111H35.9464V56.7494L33.4846 61.0814C33.4235 61.1915 33.339 61.2751 33.2309 61.3325C33.1218 61.3894 33.0058 61.4181 32.8805 61.4181C32.7599 61.4181 32.6466 61.3894 32.5417 61.3325C32.4367 61.2751 32.3542 61.1915 32.2932 61.0814L29.8204 56.7494V61.3111H28.4321V54.2448C28.4321 54.0846 28.4791 53.942 28.5731 53.8178C28.6676 53.693 28.7914 53.6094 28.9443 53.5666C29.0195 53.5484 29.0942 53.5426 29.1688 53.5478C29.2435 53.553 29.3156 53.5692 29.3855 53.5959C29.455 53.6225 29.5181 53.6601 29.5745 53.7081C29.632 53.7561 29.6795 53.8141 29.7191 53.8815L32.8805 59.3777L36.043 53.8815C36.1244 53.7462 36.2377 53.6502 36.3818 53.5933C36.5265 53.5363 36.6768 53.5269 36.8335 53.5666C36.9828 53.6094 37.1055 53.693 37.2021 53.8178C37.2976 53.942 37.3456 54.0846 37.3456 54.2448V61.3111ZM16.2011 50.8396C11.7052 50.8396 8.06089 47.1953 8.06089 42.6994C8.06089 38.204 11.7052 34.5596 16.2011 34.5596C20.6965 34.5596 24.3409 38.204 24.3409 42.6994C24.3409 47.1953 20.6965 50.8396 16.2011 50.8396ZM22.9098 58.1816H18.5251V56.7818H22.9098V58.1816ZM23.5342 55.0406H17.969V59.3615C17.969 59.5432 18.0176 59.6821 18.1131 59.7782C18.2097 59.8743 18.3502 59.9218 18.5355 59.9218H23.5342V61.3111H18.5245C18.3324 61.3111 18.1225 61.2772 17.8944 61.2093C17.6667 61.1414 17.4553 61.0307 17.261 60.8757C17.0673 60.7211 16.9055 60.5196 16.7755 60.2721C16.6455 60.0246 16.5807 59.7213 16.5807 59.3615V54.3519C16.5807 54.2558 16.5985 54.1644 16.634 54.0793C16.6695 53.9937 16.718 53.919 16.7807 53.8548C16.8433 53.7906 16.917 53.741 17.0021 53.7055C17.0877 53.67 17.1806 53.6522 17.2798 53.6522H23.5342V55.0406ZM15.0473 59.3615C15.0473 59.6393 14.9987 59.8978 14.9032 60.1364C14.8066 60.3744 14.6724 60.5812 14.4996 60.7556C14.3268 60.93 14.1216 61.0662 13.883 61.1639C13.6444 61.262 13.3843 61.3111 13.1029 61.3111H8.01286V59.9218H13.1029C13.2742 59.9218 13.4073 59.8737 13.5034 59.7751C13.6 59.6774 13.6475 59.5396 13.6475 59.3615V53.6522H15.0473V59.3615ZM10.3953 27.7743C13.1175 19.2242 18.7553 13.1823 25.8623 11.1993C26.5557 11.0051 27.2767 11.4113 27.4704 12.1057C27.6646 12.8001 27.2584 13.5201 26.564 13.7138C20.8547 15.3073 16.197 19.9697 13.5676 26.6403C17.6845 26.54 22.8325 28.3162 25.9438 32.3725C29.6821 37.247 30.7216 41.3032 31.345 44.3983H42.3652C43.0132 37.8777 46.7364 33.4585 48.9893 31.3419C51.143 29.3192 55.3898 26.3421 59.7432 24.45C55.9271 23.6637 53.8444 23.9775 52.7218 24.4683L52.2629 24.6698C49.3516 25.9511 47.0522 26.9629 42.2994 26.2455C37.7816 25.5631 36.7666 24.9168 34.238 22.975L33.8966 22.7129C30.1901 19.8763 23.907 21.4249 22.0316 22.5187C21.4092 22.8821 20.6093 22.6717 20.2465 22.0488C19.8831 21.4264 20.0935 20.6271 20.7158 20.2637C23.4533 18.6671 30.8307 17.0788 35.4833 20.6401L35.8279 20.9043L35.8292 20.9054C38.0304 22.5956 38.6225 23.0503 42.6889 23.6642C46.693 24.2678 48.4906 23.4778 51.2119 22.2801L51.6755 22.0765C54.4067 20.8819 58.7486 21.2025 64.5811 23.0298L64.6307 23.0455C65.193 23.222 65.5674 23.7525 65.5449 24.3414C65.5225 24.9298 65.1084 25.43 64.5346 25.5631C59.4848 26.7306 53.34 30.8365 50.777 33.2444C48.6744 35.2196 45.1131 39.4717 44.8891 45.7506C44.8641 46.4528 44.2876 47.0089 43.5849 47.0089H30.271C29.6461 47.0089 29.1088 46.5661 28.9898 45.9532L28.9575 45.7866C28.3556 42.6877 27.6063 38.8305 23.872 33.9613C20.6396 29.7463 14.9366 28.783 11.9188 29.445C11.4645 29.5453 10.9889 29.3944 10.6746 29.0498C10.3603 28.7052 10.2538 28.2186 10.3953 27.7743Z" fill="#50BCEA"/>
</svg>
