<svg width="39" height="39" viewBox="0 0 39 39" fill="none" xmlns="http://www.w3.org/2000/svg">
<path d="M27.4375 22.5037C27.4375 20.8967 28.7448 19.5897 30.3515 19.5897C31.9585 19.5897 33.2658 20.8967 33.2658 22.5037C33.2658 24.1107 31.9585 25.418 30.3515 25.418C28.7448 25.418 27.4375 24.1107 27.4375 22.5037Z" fill="#1F1F1F"/>
<path d="M32.5484 29.0205C32.6656 29.0667 32.7661 29.1314 32.8497 29.2148C32.9331 29.2984 32.9978 29.3988 33.0437 29.5161C33.09 29.6333 33.1128 29.7643 33.1128 29.9084V30.6797C33.1128 30.8245 33.09 30.9552 33.0437 31.0727C32.9978 31.1899 32.9328 31.2903 32.8481 31.374C32.7639 31.4571 32.6629 31.522 32.5457 31.568C32.4285 31.6142 32.2983 31.6371 32.156 31.6371H31.1704C31.0281 31.6371 30.898 31.6142 30.7808 31.568C30.6635 31.522 30.5625 31.4571 30.4781 31.374C30.3936 31.2903 30.3287 31.1899 30.2824 31.0727C30.2365 30.9552 30.2136 30.8245 30.2136 30.6797V29.9084C30.2136 29.7643 30.2365 29.6333 30.2824 29.5161C30.3287 29.3988 30.3936 29.2984 30.4781 29.2148C30.5625 29.1314 30.6635 29.0667 30.7808 29.0205C30.898 28.9745 31.0281 28.9517 31.1704 28.9517H32.1615C32.3022 28.9517 32.4312 28.9745 32.5484 29.0205Z" fill="#1F1F1F"/>
<path d="M23.7541 29.2148C23.6704 29.1314 23.57 29.0667 23.4528 29.0205C23.3356 28.9745 23.2065 28.9517 23.0659 28.9517H22.0747C21.9325 28.9517 21.8023 28.9745 21.6851 29.0205C21.5679 29.0667 21.4669 29.1314 21.3824 29.2148C21.2979 29.2984 21.233 29.3988 21.1868 29.5161C21.1408 29.6333 21.118 29.7643 21.118 29.9084V30.6797C21.118 30.8245 21.1408 30.9552 21.1868 31.0727C21.233 31.1899 21.2979 31.2903 21.3824 31.374C21.4669 31.4571 21.5679 31.522 21.6851 31.568C21.8023 31.6142 21.9325 31.6371 22.0747 31.6371H23.0604C23.2027 31.6371 23.3328 31.6142 23.45 31.568C23.5672 31.522 23.6682 31.4571 23.7524 31.374C23.8372 31.2903 23.9021 31.1899 23.9481 31.0727C23.9943 30.9552 24.0171 30.8245 24.0171 30.6797V29.9084C24.0171 29.7643 23.9943 29.6333 23.9481 29.5161C23.9021 29.3988 23.8375 29.2984 23.7541 29.2148Z" fill="#1F1F1F"/>
<path d="M8.53843 19.5897C6.93146 19.5897 5.62414 20.8967 5.62414 22.5037C5.62414 24.1107 6.93146 25.418 8.53843 25.418C10.1451 25.418 11.4525 24.1107 11.4525 22.5037C11.4525 20.8967 10.1451 19.5897 8.53843 19.5897Z" fill="#1F1F1F"/>
<path fill-rule="evenodd" clip-rule="evenodd" d="M9.36009 0C4.19052 0 0 4.19052 0 9.36009V39H29.6402C34.8095 39 39 34.8095 39 29.6402V0H9.36009ZM30.3515 26.7939C27.9823 26.7939 26.0616 24.8732 26.0616 22.5037C26.0616 20.1345 27.9823 18.2139 30.3515 18.2139C32.7207 18.2139 34.6416 20.1345 34.6416 22.5037C34.6416 24.8732 32.7207 26.7939 30.3515 26.7939ZM33.8447 30.6798C33.8447 30.9258 33.8024 31.152 33.7179 31.3583C33.6334 31.5647 33.5159 31.743 33.3662 31.893C33.216 32.0432 33.0382 32.1602 32.8327 32.2435C32.6271 32.3269 32.4034 32.369 32.1615 32.369H31.1704C30.9282 32.369 30.7043 32.3269 30.4979 32.2435C30.2915 32.1602 30.1129 32.0432 29.963 31.893C29.8127 31.743 29.6952 31.5647 29.6096 31.3583C29.5243 31.152 29.4814 30.9258 29.4814 30.6798V29.9085C29.4814 29.665 29.5243 29.439 29.6096 29.2316C29.6952 29.0244 29.8127 28.8461 29.963 28.6969C30.1129 28.5478 30.2915 28.4308 30.4979 28.3466C30.7043 28.2619 30.9282 28.2198 31.1704 28.2198H32.1615C32.4034 28.2198 32.6271 28.2619 32.8327 28.3466C33.0382 28.4308 33.216 28.5478 33.3662 28.6969C33.5159 28.8461 33.6334 29.0244 33.7179 29.2316C33.8024 29.439 33.8447 29.665 33.8447 29.9085V30.6798ZM29.0954 29.0079H27.4826V32.3126H26.7509V29.0079H25.1349V28.2762H29.0954V29.0079ZM24.7491 30.6798C24.7491 30.9258 24.7067 31.152 24.6222 31.3583C24.538 31.5647 24.4205 31.743 24.2706 31.893C24.1203 32.0432 23.9426 32.1602 23.737 32.2435C23.5315 32.3269 23.3078 32.369 23.0659 32.369H22.0747C21.8329 32.369 21.6086 32.3269 21.4022 32.2435C21.1959 32.1602 21.0175 32.0432 20.8676 31.893C20.7173 31.743 20.5996 31.5647 20.5143 31.3583C20.4287 31.152 20.386 30.9258 20.386 30.6798V29.9085C20.386 29.665 20.4287 29.439 20.5143 29.2316C20.5996 29.0244 20.7173 28.8461 20.8676 28.6969C21.0175 28.5478 21.1959 28.4308 21.4022 28.3466C21.6086 28.2619 21.8329 28.2198 22.0747 28.2198H23.0659C23.3078 28.2198 23.5315 28.2619 23.737 28.3466C23.9426 28.4308 24.1203 28.5478 24.2706 28.6969C24.4205 28.8461 24.538 29.0244 24.6222 29.2316C24.7067 29.439 24.7491 29.665 24.7491 29.9085V30.6798ZM19.6822 32.3126H18.9447V29.9085L17.6473 32.1915C17.6151 32.2496 17.5705 32.2936 17.5136 32.3239C17.4561 32.3539 17.395 32.369 17.3289 32.369C17.2654 32.369 17.2057 32.3539 17.1503 32.3239C17.095 32.2936 17.0516 32.2496 17.0194 32.1915L15.7162 29.9085V32.3126H14.9845V28.5885C14.9845 28.504 15.0093 28.4289 15.0588 28.3634C15.1086 28.2976 15.1738 28.2536 15.2544 28.2311C15.2941 28.2214 15.3334 28.2184 15.3728 28.2211C15.4121 28.2239 15.4501 28.2324 15.487 28.2465C15.5236 28.2605 15.5569 28.2803 15.5866 28.3056C15.6168 28.3309 15.6419 28.3615 15.6628 28.397L17.3289 31.2937L18.9956 28.397C19.0385 28.3257 19.0983 28.2751 19.1742 28.2451C19.2504 28.2151 19.3297 28.2101 19.4122 28.2311C19.4909 28.2536 19.5556 28.2976 19.6065 28.3634C19.6568 28.4289 19.6822 28.504 19.6822 28.5885V32.3126ZM8.53844 26.7939C6.16897 26.7939 4.24831 24.8732 4.24831 22.5037C4.24831 20.1345 6.16897 18.2139 8.53844 18.2139C10.9076 18.2139 12.8283 20.1345 12.8283 22.5037C12.8283 24.8732 10.9076 26.7939 8.53844 26.7939ZM12.0741 30.6633H9.76321V29.9255H12.0741V30.6633ZM12.4032 29.0079H9.47016V31.2851C9.47016 31.3809 9.49575 31.4541 9.5461 31.5047C9.59701 31.5554 9.67103 31.5804 9.76871 31.5804H12.4032V32.3126H9.76293C9.66167 32.3126 9.55105 32.2947 9.43081 32.259C9.31083 32.2232 9.19939 32.1648 9.09703 32.0831C8.99494 32.0017 8.90964 31.8955 8.84112 31.765C8.77261 31.6346 8.73849 31.4747 8.73849 31.2851V28.6449C8.73849 28.5943 8.74784 28.5461 8.76655 28.5013C8.78526 28.4561 8.81085 28.4168 8.84387 28.3829C8.87689 28.3491 8.91569 28.323 8.96055 28.3043C9.00567 28.2855 9.05465 28.2762 9.10693 28.2762H12.4032V29.0079ZM7.93032 31.2851C7.93032 31.4315 7.90473 31.5677 7.85437 31.6935C7.80347 31.819 7.73275 31.9279 7.64167 32.0198C7.55059 32.1117 7.44245 32.1836 7.3167 32.235C7.19095 32.2867 7.05391 32.3126 6.9056 32.3126H4.22299V31.5804H6.9056C6.99585 31.5804 7.06602 31.5551 7.11665 31.5031C7.16756 31.4516 7.1926 31.379 7.1926 31.2851V28.2762H7.93032V31.2851ZM5.47858 14.6378C6.9133 10.1317 9.88456 6.94742 13.6301 5.90234C13.9956 5.79997 14.3756 6.01405 14.4776 6.38003C14.58 6.746 14.3659 7.12546 14 7.22754C10.991 8.06735 8.53624 10.5246 7.1505 14.0401C9.32019 13.9873 12.0333 14.9234 13.6731 17.0612C15.6433 19.6302 16.1911 21.7679 16.5197 23.3991H22.3276C22.6691 19.9626 24.6313 17.6335 25.8187 16.518C26.9537 15.452 29.1919 13.883 31.4863 12.8858C29.4751 12.4714 28.3774 12.6368 27.7858 12.8954L27.544 13.0017C26.0096 13.6769 24.7978 14.2102 22.2929 13.8321C19.9119 13.4725 19.377 13.1318 18.0444 12.1085L17.8644 11.9703C15.911 10.4753 12.5996 11.2915 11.6112 11.868C11.2832 12.0595 10.8617 11.9486 10.6704 11.6203C10.4789 11.2923 10.5898 10.871 10.9178 10.6795C12.3605 9.83805 16.2486 9.001 18.7006 10.8779L18.8822 11.0171L18.883 11.0177C20.043 11.9085 20.3551 12.1481 22.4982 12.4717C24.6085 12.7898 25.5559 12.3734 26.9901 11.7422L27.2344 11.6349C28.6738 11.0053 30.9621 11.1743 34.036 12.1374L34.0621 12.1456C34.3585 12.2386 34.5558 12.5182 34.5439 12.8286C34.5321 13.1387 34.3139 13.4023 34.0115 13.4725C31.3501 14.0877 28.1116 16.2516 26.7608 17.5207C25.6527 18.5617 23.7758 20.8026 23.6578 24.1118C23.6446 24.4819 23.3408 24.775 22.9704 24.775H15.9536C15.6243 24.775 15.3411 24.5416 15.2784 24.2186L15.2614 24.1308C14.9442 22.4976 14.5493 20.4647 12.5812 17.8985C10.8776 15.6771 7.87198 15.1694 6.28152 15.5183C6.04212 15.5712 5.79144 15.4916 5.62579 15.31C5.46014 15.1284 5.40401 14.872 5.47858 14.6378Z" fill="#1F1F1F"/>
</svg>
