<svg width="270" height="48" viewBox="0 0 270 48" fill="none" xmlns="http://www.w3.org/2000/svg">
<path d="M86.914 21.92C86.914 22.9662 86.7332 23.9392 86.3709 24.8378C86.0087 25.7369 85.5019 26.515 84.8518 27.1718C84.2005 27.8293 83.4262 28.3422 82.5276 28.7112C81.629 29.0803 80.6493 29.2642 79.5902 29.2642H60.4153V24.0333H79.5902C80.2341 24.0333 80.7372 23.8488 81.0989 23.4798C81.4611 23.1114 81.6426 22.5917 81.6426 21.92V0.411743H86.914V21.92Z" fill="#1F1F1F"/>
<path d="M115.895 17.474H99.3758V12.2025H115.895V17.474ZM118.249 29.2648H99.3758C98.6513 29.2648 97.8597 29.1375 97.0018 28.8829C96.1432 28.6282 95.348 28.2082 94.6173 27.6251C93.886 27.0408 93.2759 26.2837 92.7864 25.3507C92.2962 24.4189 92.052 23.2756 92.052 21.9201V3.04776C92.052 2.68489 92.119 2.34355 92.2531 2.02127C92.3872 1.69961 92.5711 1.41793 92.8066 1.17622C93.041 0.935125 93.3196 0.747549 93.6412 0.612857C93.9635 0.478779 94.3122 0.411743 94.6874 0.411743H118.249V5.64321H97.2835V21.9201C97.2835 22.6052 97.4643 23.1274 97.8265 23.4902C98.1888 23.8519 98.7183 24.0333 99.4158 24.0333H118.249V29.2648Z" fill="#1F1F1F"/>
<path d="M170.281 29.2648H165.01V12.082L155.734 28.4001C155.506 28.8158 155.187 29.1307 154.778 29.3454C154.369 29.5594 153.929 29.667 153.46 29.667C153.004 29.667 152.578 29.5594 152.183 29.3454C151.787 29.1307 151.475 28.8158 151.247 28.4001L141.931 12.082V29.2648H136.699V2.64559C136.699 2.04163 136.877 1.50593 137.233 1.03605C137.588 0.566164 138.055 0.251267 138.631 0.0901289C138.913 0.0237054 139.194 -0.000280852 139.477 0.0200152C139.758 0.0396963 140.03 0.100584 140.291 0.200835C140.553 0.3017 140.791 0.441928 141.006 0.623362C141.22 0.804182 141.401 1.02313 141.549 1.27776L153.46 21.981L165.372 1.27776C165.68 0.767895 166.106 0.405641 166.649 0.190379C167.193 -0.0236521 167.759 -0.0568639 168.349 0.0901289C168.913 0.251267 169.375 0.566164 169.738 1.03605C170.1 1.50593 170.281 2.04163 170.281 2.64559V29.2648Z" fill="#1F1F1F"/>
<path d="M200.624 12.0821C200.624 11.0495 200.459 10.114 200.131 9.27572C199.802 8.43682 199.339 7.71907 198.742 7.12249C198.146 6.52591 197.428 6.06279 196.589 5.73436C195.751 5.40594 194.829 5.24111 193.823 5.24111H186.741C185.721 5.24111 184.792 5.40594 183.954 5.73436C183.115 6.06279 182.394 6.52591 181.791 7.12249C181.187 7.71907 180.721 8.43682 180.392 9.27572C180.063 10.114 179.9 11.0495 179.9 12.0821V17.5953C179.9 18.6285 180.063 19.564 180.392 20.4017C180.721 21.2406 181.187 21.9577 181.791 22.5549C182.394 23.1521 183.115 23.614 183.954 23.943C184.792 24.2721 185.721 24.4357 186.741 24.4357H193.783C194.802 24.4357 195.731 24.2721 196.57 23.943C197.408 23.614 198.129 23.1521 198.733 22.5549C199.336 21.9577 199.802 21.2406 200.131 20.4017C200.459 19.564 200.624 18.6285 200.624 17.5953V12.0821ZM205.855 17.5953C205.855 19.3524 205.554 20.9687 204.949 22.4442C204.347 23.9203 203.507 25.194 202.435 26.2666C201.361 27.3405 200.091 28.1757 198.622 28.7716C197.153 29.3688 195.554 29.6671 193.823 29.6671H186.741C185.01 29.6671 183.407 29.3688 181.931 28.7716C180.456 28.1757 179.182 27.3405 178.109 26.2666C177.035 25.194 176.193 23.9203 175.583 22.4442C174.973 20.9687 174.668 19.3524 174.668 17.5953V12.0821C174.668 10.3385 174.973 8.72527 175.583 7.24304C176.193 5.76143 177.035 4.48646 178.109 3.42C179.182 2.35415 180.456 1.51893 181.931 0.91497C183.407 0.311623 185.01 0.00964355 186.741 0.00964355H193.823C195.554 0.00964355 197.153 0.311623 198.622 0.91497C200.091 1.51893 201.361 2.35415 202.435 3.42C203.507 4.48646 204.347 5.76143 204.949 7.24304C205.554 8.72527 205.855 10.3385 205.855 12.0821V17.5953Z" fill="#1F1F1F"/>
<path d="M236.287 5.64322H224.758V29.2648H219.527V5.64322H207.978V0.411743H236.287V5.64322Z" fill="#1F1F1F"/>
<path d="M264.369 12.0821C264.369 11.0495 264.204 10.114 263.876 9.27572C263.547 8.43682 263.084 7.71907 262.488 7.12249C261.891 6.52591 261.173 6.06279 260.334 5.73436C259.496 5.40594 258.574 5.24111 257.568 5.24111H250.486C249.466 5.24111 248.537 5.40594 247.699 5.73436C246.86 6.06279 246.139 6.52591 245.536 7.12249C244.932 7.71907 244.466 8.43682 244.137 9.27572C243.808 10.114 243.645 11.0495 243.645 12.0821V17.5953C243.645 18.6285 243.808 19.564 244.137 20.4017C244.466 21.2406 244.932 21.9577 245.536 22.5549C246.139 23.1521 246.86 23.614 247.699 23.943C248.537 24.2721 249.466 24.4357 250.486 24.4357H257.528C258.547 24.4357 259.476 24.2721 260.315 23.943C261.153 23.614 261.874 23.1521 262.478 22.5549C263.081 21.9577 263.547 21.2406 263.876 20.4017C264.204 19.564 264.369 18.6285 264.369 17.5953V12.0821ZM269.6 17.5953C269.6 19.3524 269.299 20.9687 268.694 22.4442C268.092 23.9203 267.252 25.194 266.18 26.2666C265.106 27.3405 263.836 28.1757 262.367 28.7716C260.898 29.3688 259.299 29.6671 257.568 29.6671H250.486C248.755 29.6671 247.152 29.3688 245.676 28.7716C244.201 28.1757 242.927 27.3405 241.854 26.2666C240.78 25.194 239.939 23.9203 239.328 22.4442C238.718 20.9687 238.413 19.3524 238.413 17.5953V12.0821C238.413 10.3385 238.718 8.72527 239.328 7.24304C239.939 5.76143 240.78 4.48646 241.854 3.42C242.927 2.35415 244.201 1.51893 245.676 0.91497C247.152 0.311623 248.755 0.00964355 250.486 0.00964355H257.568C259.299 0.00964355 260.898 0.311623 262.367 0.91497C263.836 1.51893 265.106 2.35415 266.18 3.42C267.252 4.48646 268.092 5.76143 268.694 7.24304C269.299 8.72527 269.6 10.3385 269.6 12.0821V17.5953Z" fill="#1F1F1F"/>
<path d="M68.6605 43.9542H62.7451C62.5938 43.9542 62.4308 43.9364 62.2561 43.9007C62.0814 43.8644 61.9092 43.8091 61.7395 43.7334C61.5685 43.6578 61.4061 43.56 61.2505 43.44C61.0949 43.3207 60.9572 43.175 60.8372 43.0052C60.7173 42.8348 60.622 42.6368 60.55 42.4123C60.4787 42.1872 60.443 41.9344 60.443 41.6528V37.2128C60.443 37.0615 60.4608 36.8979 60.4965 36.7239C60.5322 36.5492 60.5881 36.377 60.6638 36.2066C60.7394 36.0363 60.8385 35.8733 60.9602 35.7177C61.082 35.5621 61.2284 35.4249 61.3988 35.305C61.5685 35.1851 61.7653 35.0897 61.988 35.0184C62.2112 34.9464 62.4634 34.9108 62.7451 34.9108H68.6605V36.5504H62.7451C62.5304 36.5504 62.3668 36.6076 62.253 36.7202C62.1393 36.8346 62.0827 37.0025 62.0827 37.2251V41.6528C62.0827 41.8631 62.1405 42.0255 62.2561 42.1411C62.3717 42.2567 62.5347 42.3145 62.7451 42.3145H68.6605V43.9542Z" fill="#1F1F1F"/>
<path d="M77.3373 39.3934C77.3373 39.6203 77.2974 39.8657 77.2174 40.1284C77.1375 40.391 77.0083 40.6352 76.8293 40.8603C76.651 41.0847 76.4173 41.2736 76.13 41.4249C75.8416 41.5762 75.4916 41.6518 75.0796 41.6518H72.1219V40.0939H75.0796C75.3022 40.0939 75.475 40.025 75.5968 39.8891C75.7186 39.752 75.7795 39.5834 75.7795 39.3811C75.7795 39.1665 75.7112 38.9986 75.5747 38.8768C75.4381 38.755 75.2733 38.6935 75.0796 38.6935H72.1219C71.8992 38.6935 71.7264 38.7624 71.6046 38.8983C71.4828 39.0355 71.422 39.2046 71.422 39.4063V41.6955C71.422 41.9144 71.4902 42.0848 71.6268 42.2066C71.7633 42.3283 71.9324 42.3892 72.1348 42.3892H75.0796V43.9533H72.1219C71.8949 43.9533 71.6495 43.9139 71.3875 43.8333C71.1243 43.754 70.8801 43.6242 70.6556 43.4459C70.4305 43.2669 70.2423 43.0338 70.091 42.7453C69.9397 42.4575 69.8641 42.1075 69.8641 41.6955V39.3934C69.8641 39.1665 69.9041 38.9217 69.984 38.6591C70.064 38.3964 70.1931 38.1523 70.3715 37.9272C70.5505 37.7027 70.7835 37.5145 71.072 37.3632C71.3598 37.2119 71.7098 37.1362 72.1219 37.1362H75.0796C75.3065 37.1362 75.5513 37.1762 75.8145 37.2555C76.0771 37.3355 76.3207 37.4647 76.5458 37.6436C76.7709 37.822 76.9591 38.0557 77.1104 38.3435C77.2617 38.632 77.3373 38.9819 77.3373 39.3934Z" fill="#1F1F1F"/>
<path d="M79.8479 47.6241H78.9143L79.3811 45.0889H80.6235L79.8479 47.6241ZM81.5128 43.9536H80.7816C80.546 43.9536 80.2945 43.9142 80.0275 43.8337C79.7606 43.7543 79.5115 43.6227 79.2803 43.4394C79.049 43.2568 78.8577 43.0194 78.7064 42.7272C78.5551 42.4345 78.4795 42.0765 78.4795 41.6521V34.2545H80.1192V41.6521C80.1192 41.8539 80.1819 42.0144 80.3086 42.1343C80.4347 42.2543 80.5921 42.3139 80.7816 42.3139H81.5128V43.9536Z" fill="#1F1F1F"/>
<path d="M88.4779 39.4438C88.4779 39.2169 88.4214 39.049 88.3076 38.9395C88.1944 38.8306 88.0302 38.7759 87.8156 38.7759H84.8708C84.6518 38.7759 84.4858 38.8313 84.3726 38.9432C84.2588 39.0539 84.2022 39.2169 84.2022 39.4315V41.6518C84.2022 41.8658 84.2588 42.03 84.3726 42.1432C84.4858 42.257 84.6518 42.3136 84.8708 42.3136H87.8156C88.0388 42.3136 88.2049 42.257 88.3137 42.1432C88.4232 42.03 88.4779 41.8658 88.4779 41.6518V39.4438ZM90.1176 41.6518C90.1176 41.9335 90.082 42.1863 90.0106 42.4114C89.9386 42.6359 89.8445 42.8339 89.7265 43.0043C89.609 43.174 89.4725 43.3198 89.3168 43.4391C89.1612 43.559 88.9983 43.6568 88.8279 43.7325C88.6575 43.8081 88.4853 43.8641 88.3113 43.8997C88.136 43.9354 87.9712 43.9533 87.8156 43.9533H84.8579C84.6309 43.9533 84.3831 43.9139 84.1137 43.8333C83.8449 43.754 83.5958 43.6224 83.3664 43.4391C83.137 43.2564 82.9457 43.0184 82.7926 42.7269C82.6388 42.4341 82.5626 42.0762 82.5626 41.6518V39.4315C82.5626 39.0115 82.6388 38.6547 82.7926 38.3626C82.9457 38.0705 83.137 37.8331 83.3664 37.6498C83.5958 37.4671 83.8449 37.3355 84.1137 37.2555C84.3831 37.1756 84.6309 37.1362 84.8579 37.1362H87.8156C88.2362 37.1362 88.5936 37.2119 88.8882 37.3632C89.1822 37.5145 89.4196 37.7045 89.6004 37.9339C89.7812 38.1627 89.9128 38.4118 89.9946 38.6812C90.077 38.95 90.1176 39.2003 90.1176 39.4315V41.6518Z" fill="#1F1F1F"/>
<path d="M93.1031 35.7361H91.4634V34.2545H93.1031V35.7361ZM93.1031 44.6098C93.1031 44.8915 93.0674 45.1449 92.9955 45.3694C92.9241 45.5945 92.8294 45.7925 92.7119 45.9623C92.5945 46.1327 92.4573 46.2778 92.3023 46.3977C92.1467 46.517 91.9831 46.6155 91.8134 46.6911C91.643 46.7668 91.4714 46.8227 91.2992 46.8578C91.127 46.8941 90.9628 46.9113 90.8072 46.9113H87.8495V45.2716H90.8072C91.0261 45.2716 91.1897 45.215 91.2992 45.1019C91.4087 44.9881 91.4634 44.8245 91.4634 44.6098V37.1366H93.1031V44.6098Z" fill="#1F1F1F"/>
<path d="M102.078 43.1279C102.078 43.246 102.057 43.3548 102.015 43.4557C101.973 43.5566 101.915 43.6445 101.842 43.7177C101.768 43.7915 101.682 43.8493 101.583 43.8911C101.484 43.9336 101.378 43.9545 101.265 43.9545H97.5566C97.3549 43.9545 97.139 43.9317 96.9102 43.8844C96.6808 43.8389 96.4551 43.7638 96.2324 43.6611C96.0092 43.5578 95.7939 43.4274 95.5854 43.2699C95.3775 43.1125 95.1961 42.9212 95.0405 42.6961C94.8849 42.4716 94.76 42.2121 94.6647 41.9169C94.5706 41.6235 94.5233 41.2914 94.5233 40.9211V37.1375H96.1629V40.9211C96.1629 41.1352 96.1992 41.3277 96.2736 41.498C96.3468 41.6684 96.4465 41.8142 96.5725 41.9366C96.6986 42.0583 96.8468 42.1518 97.0172 42.217C97.1876 42.2822 97.3715 42.3148 97.5689 42.3148H100.439V37.1375H102.078V43.1279Z" fill="#1F1F1F"/>
<path d="M109.644 43.9545H108.004V39.4328C108.004 39.2181 107.948 39.0551 107.834 38.9444C107.721 38.8325 107.552 38.7771 107.329 38.7771H105.198V43.9545H103.558V37.9505C103.558 37.8374 103.579 37.731 103.621 37.6326C103.663 37.5335 103.722 37.4474 103.798 37.3736C103.874 37.3004 103.962 37.2426 104.062 37.2002C104.163 37.1584 104.271 37.1375 104.384 37.1375H107.342C107.569 37.1375 107.813 37.1768 108.074 37.2568C108.334 37.3367 108.582 37.4653 108.818 37.6418V37.1375H111.037C111.193 37.1375 111.357 37.1547 111.529 37.191C111.702 37.2266 111.873 37.282 112.044 37.3576C112.213 37.4333 112.376 37.5317 112.532 37.651C112.688 37.7709 112.824 37.9161 112.942 38.0864C113.06 38.2562 113.154 38.4536 113.226 38.6763C113.297 38.8989 113.333 39.1511 113.333 39.4328V43.9545H111.694V39.4328C111.694 39.2181 111.64 39.0551 111.533 38.9444C111.426 38.8325 111.26 38.7771 111.037 38.7771H109.562C109.617 38.9789 109.644 39.1978 109.644 39.4328V43.9545Z" fill="#1F1F1F"/>
<path d="M116.445 43.9536H114.806V37.1366H116.445V43.9536ZM116.445 35.7361H114.806V34.2545H116.445V35.7361Z" fill="#1F1F1F"/>
<path d="M129.632 41.6522H128.894L128.882 41.6707C128.882 41.94 128.848 42.1818 128.777 42.3958C128.709 42.611 128.617 42.7986 128.504 42.9604C128.39 43.1228 128.258 43.2624 128.106 43.3798C127.955 43.4979 127.798 43.5933 127.637 43.6664C127.474 43.7409 127.311 43.7938 127.145 43.8276C126.978 43.8614 126.822 43.878 126.675 43.878H124.448C124.058 43.878 123.724 43.8048 123.449 43.6572C123.173 43.5102 122.946 43.3276 122.768 43.1086C122.589 42.8903 122.457 42.6529 122.37 42.3958C122.284 42.1399 122.237 41.9019 122.229 41.6836V40.9209C122.229 40.5888 122.276 40.3016 122.37 40.0593C122.465 39.8182 122.59 39.6091 122.746 39.4326C122.565 39.205 122.433 38.959 122.352 38.6939C122.269 38.4294 122.229 38.181 122.229 37.9497C122.229 37.5419 122.302 37.1975 122.449 36.9158C122.596 36.6342 122.781 36.406 123.004 36.2319C123.227 36.0566 123.468 35.9306 123.726 35.8531C123.984 35.775 124.226 35.7362 124.448 35.7362H128.144V37.2123H124.448C124.335 37.2123 124.233 37.2301 124.143 37.2658C124.052 37.3015 123.974 37.3531 123.909 37.4202C123.844 37.4878 123.794 37.5659 123.761 37.657C123.727 37.7467 123.713 37.8452 123.717 37.9497C123.717 38.1896 123.784 38.3735 123.919 38.502C124.053 38.6299 124.23 38.6939 124.448 38.6939H126.675V40.17H124.448C124.217 40.17 124.037 40.2413 123.909 40.384C123.781 40.5273 123.717 40.7057 123.717 40.9209V41.627C123.717 41.8539 123.785 42.0378 123.922 42.1781C124.058 42.3195 124.234 42.3896 124.448 42.3896H126.662C126.893 42.3896 127.075 42.3201 127.208 42.1818C127.339 42.0428 127.406 41.8662 127.406 41.6522C127.406 41.4714 127.438 41.2924 127.501 41.1159C127.564 40.9394 127.659 40.7807 127.785 40.6399C127.911 40.499 128.065 40.3852 128.248 40.2991C128.431 40.213 128.642 40.17 128.882 40.17H129.632V41.6522Z" fill="#1F1F1F"/>
<path d="M144.307 43.2537C144.307 43.3718 144.285 43.4806 144.242 43.5815C144.197 43.6823 144.138 43.7703 144.065 43.8435C143.991 43.9173 143.904 43.9751 143.803 44.0169C143.702 44.0594 143.595 44.0803 143.481 44.0803C143.38 44.0803 143.279 44.0606 143.175 44.0237C143.073 43.9849 142.981 43.9247 142.901 43.8404L136.91 37.5843V43.9542H135.271V35.61C135.271 35.4428 135.318 35.2902 135.412 35.1531C135.506 35.0165 135.628 34.9144 135.775 34.8474C135.93 34.7841 136.09 34.7687 136.254 34.8C136.418 34.832 136.559 34.9089 136.677 35.0301L142.668 41.28V34.9107H144.307V43.2537Z" fill="#1F1F1F"/>
<path d="M151.766 39.4438C151.766 39.2169 151.709 39.049 151.596 38.9395C151.482 38.8306 151.318 38.7759 151.104 38.7759H148.159C147.94 38.7759 147.774 38.8313 147.661 38.9432C147.547 39.0539 147.49 39.2169 147.49 39.4315V41.6518C147.49 41.8658 147.547 42.03 147.661 42.1432C147.774 42.257 147.94 42.3136 148.159 42.3136H151.104C151.326 42.3136 151.493 42.257 151.602 42.1432C151.711 42.03 151.766 41.8658 151.766 41.6518V39.4438ZM153.406 41.6518C153.406 41.9335 153.369 42.1863 153.298 42.4114C153.227 42.6359 153.133 42.8339 153.015 43.0043C152.897 43.174 152.76 43.3198 152.605 43.4391C152.449 43.559 152.286 43.6568 152.116 43.7325C151.946 43.8081 151.773 43.8641 151.599 43.8997C151.424 43.9354 151.259 43.9533 151.104 43.9533H148.146C147.919 43.9533 147.671 43.9139 147.402 43.8333C147.133 43.754 146.884 43.6224 146.655 43.4391C146.425 43.2564 146.234 43.0184 146.081 42.7269C145.928 42.4341 145.851 42.0762 145.851 41.6518V39.4315C145.851 39.0115 145.928 38.6547 146.081 38.3626C146.234 38.0705 146.425 37.8331 146.655 37.6498C146.884 37.4671 147.133 37.3355 147.402 37.2555C147.671 37.1756 147.919 37.1362 148.146 37.1362H151.104C151.524 37.1362 151.881 37.2119 152.176 37.3632C152.47 37.5145 152.708 37.7045 152.889 37.9339C153.069 38.1627 153.201 38.4118 153.283 38.6812C153.365 38.95 153.406 39.2003 153.406 39.4315V41.6518Z" fill="#1F1F1F"/>
<path d="M160.837 43.9545H159.198V39.4328C159.198 39.2181 159.14 39.0551 159.027 38.9444C158.914 38.8325 158.746 38.7771 158.522 38.7771H156.391V43.9545H154.751V37.9505C154.751 37.8374 154.773 37.731 154.814 37.6326C154.856 37.5335 154.915 37.4474 154.991 37.3736C155.066 37.3004 155.155 37.2426 155.256 37.2002C155.357 37.1584 155.464 37.1375 155.577 37.1375H158.535C158.762 37.1375 159.006 37.1768 159.267 37.2568C159.527 37.3367 159.775 37.4653 160.011 37.6418V37.1375H162.231C162.387 37.1375 162.55 37.1547 162.722 37.191C162.895 37.2266 163.066 37.282 163.237 37.3576C163.407 37.4333 163.569 37.5317 163.725 37.651C163.881 37.7709 164.018 37.9161 164.135 38.0864C164.253 38.2562 164.347 38.4536 164.419 38.6763C164.49 38.8989 164.526 39.1511 164.526 39.4328V43.9545H162.887V39.4328C162.887 39.2181 162.833 39.0551 162.725 38.9444C162.618 38.8325 162.454 38.7771 162.231 38.7771H160.755C160.81 38.9789 160.837 39.1978 160.837 39.4328V43.9545Z" fill="#1F1F1F"/>
<path d="M173.127 41.6967C173.127 41.9236 173.087 42.169 173.008 42.431C172.927 42.6943 172.798 42.9384 172.619 43.1629C172.441 43.388 172.207 43.5762 171.919 43.7275C171.631 43.8788 171.281 43.9545 170.869 43.9545H167.912C167.684 43.9545 167.44 43.9145 167.176 43.8345C166.914 43.7552 166.67 43.6254 166.445 43.4471C166.221 43.2681 166.032 43.035 165.881 42.7466C165.729 42.4587 165.654 42.1088 165.654 41.6967C165.654 41.4697 165.694 41.2237 165.774 40.9587C165.854 40.6942 165.983 40.4494 166.162 40.2237C166.34 39.9992 166.574 39.8116 166.861 39.6597C167.149 39.5084 167.499 39.4328 167.912 39.4328H170.869V40.9968H167.912C167.688 40.9968 167.516 41.0651 167.394 41.2016C167.272 41.3381 167.212 41.5073 167.212 41.7096C167.212 41.9236 167.282 42.0909 167.423 42.2109C167.563 42.3302 167.731 42.3904 167.924 42.3904H170.869C171.092 42.3904 171.265 42.3234 171.386 42.1887C171.508 42.054 171.57 41.8861 171.57 41.6838V39.3946C171.57 39.1806 171.503 39.0102 171.371 38.8841C171.238 38.7581 171.071 38.6947 170.869 38.6947H167.268V37.1375H170.869C171.096 37.1375 171.341 37.1768 171.603 37.2568C171.867 37.3367 172.111 37.4659 172.335 37.6449C172.56 37.8232 172.749 38.0569 172.9 38.3448C173.051 38.6332 173.127 38.9832 173.127 39.3946V41.6967Z" fill="#1F1F1F"/>
<path d="M186.144 41.6522H185.406L185.394 41.6707C185.394 41.94 185.359 42.1818 185.289 42.3958C185.22 42.611 185.129 42.7986 185.015 42.9604C184.901 43.1228 184.769 43.2624 184.618 43.3798C184.466 43.4979 184.31 43.5933 184.148 43.6664C183.986 43.7409 183.822 43.7938 183.656 43.8276C183.49 43.8614 183.333 43.878 183.186 43.878H180.96C180.569 43.878 180.236 43.8048 179.961 43.6572C179.685 43.5102 179.458 43.3276 179.28 43.1086C179.101 42.8903 178.968 42.6529 178.882 42.3958C178.796 42.1399 178.749 41.9019 178.74 41.6836V40.9209C178.74 40.5888 178.788 40.3016 178.882 40.0593C178.977 39.8182 179.102 39.6091 179.258 39.4326C179.077 39.205 178.945 38.959 178.863 38.6939C178.781 38.4294 178.74 38.181 178.74 37.9497C178.74 37.5419 178.813 37.1975 178.961 36.9158C179.108 36.6342 179.293 36.406 179.516 36.2319C179.738 36.0566 179.98 35.9306 180.238 35.8531C180.496 35.775 180.737 35.7362 180.96 35.7362H184.656V37.2123H180.96C180.847 37.2123 180.745 37.2301 180.654 37.2658C180.564 37.3015 180.486 37.3531 180.421 37.4202C180.356 37.4878 180.306 37.5659 180.273 37.657C180.239 37.7467 180.224 37.8452 180.229 37.9497C180.229 38.1896 180.296 38.3735 180.43 38.502C180.565 38.6299 180.742 38.6939 180.96 38.6939H183.186V40.17H180.96C180.729 40.17 180.549 40.2413 180.421 40.384C180.293 40.5273 180.229 40.7057 180.229 40.9209V41.627C180.229 41.8539 180.297 42.0378 180.433 42.1781C180.57 42.3195 180.746 42.3896 180.96 42.3896H183.174C183.405 42.3896 183.587 42.3201 183.72 42.1818C183.851 42.0428 183.918 41.8662 183.918 41.6522C183.918 41.4714 183.95 41.2924 184.012 41.1159C184.076 40.9394 184.17 40.7807 184.296 40.6399C184.422 40.499 184.577 40.3852 184.76 40.2991C184.943 40.213 185.154 40.17 185.394 40.17H186.144V41.6522Z" fill="#1F1F1F"/>
<path d="M199.956 36.55H196.342V43.9537H194.702V36.55H191.082V34.9103H199.956V36.55Z" fill="#1F1F1F"/>
<path d="M205.356 38.7771H201.668C201.444 38.7771 201.276 38.8325 201.163 38.9438C201.049 39.0551 200.992 39.2181 200.992 39.4328V43.9545H199.353V39.4328C199.353 39.1511 199.388 38.8989 199.46 38.6763C199.531 38.4536 199.627 38.2562 199.747 38.0864C199.867 37.9161 200.004 37.7709 200.16 37.651C200.316 37.5317 200.478 37.4333 200.649 37.3576C200.819 37.282 200.991 37.2266 201.166 37.191C201.34 37.1547 201.503 37.1375 201.654 37.1375H205.356V38.7771Z" fill="#1F1F1F"/>
<path d="M212.926 41.6967C212.926 41.9236 212.886 42.169 212.806 42.431C212.726 42.6943 212.597 42.9384 212.418 43.1629C212.239 43.388 212.006 43.5762 211.718 43.7275C211.43 43.8788 211.08 43.9545 210.668 43.9545H207.711C207.483 43.9545 207.239 43.9145 206.975 43.8345C206.713 43.7552 206.469 43.6254 206.244 43.4471C206.02 43.2681 205.831 43.035 205.679 42.7466C205.528 42.4587 205.452 42.1088 205.452 41.6967C205.452 41.4697 205.492 41.2237 205.572 40.9587C205.652 40.6942 205.781 40.4494 205.96 40.2237C206.139 39.9992 206.373 39.8116 206.66 39.6597C206.948 39.5084 207.298 39.4328 207.711 39.4328H210.668V40.9968H207.711C207.487 40.9968 207.315 41.0651 207.193 41.2016C207.071 41.3381 207.01 41.5073 207.01 41.7096C207.01 41.9236 207.08 42.0909 207.222 42.2109C207.362 42.3302 207.529 42.3904 207.723 42.3904H210.668C210.891 42.3904 211.063 42.3234 211.185 42.1887C211.307 42.054 211.368 41.8861 211.368 41.6838V39.3946C211.368 39.1806 211.301 39.0102 211.17 38.8841C211.037 38.7581 210.87 38.6947 210.668 38.6947H207.067V37.1375H210.668C210.895 37.1375 211.14 37.1768 211.402 37.2568C211.666 37.3367 211.91 37.4659 212.134 37.6449C212.359 37.8232 212.547 38.0569 212.699 38.3448C212.85 38.6332 212.926 38.9832 212.926 39.3946V41.6967Z" fill="#1F1F1F"/>
<path d="M221.833 43.9545H220.193V40.1708C220.193 39.9561 220.156 39.7643 220.082 39.5933C220.009 39.4235 219.91 39.2778 219.784 39.1554C219.657 39.0336 219.509 38.9401 219.338 38.8743C219.169 38.8097 218.984 38.7771 218.787 38.7771H215.917V43.9545H214.278V37.9505C214.278 37.8374 214.299 37.731 214.341 37.6326C214.383 37.5335 214.441 37.4474 214.517 37.3736C214.593 37.3004 214.681 37.2426 214.782 37.2002C214.883 37.1584 214.991 37.1375 215.104 37.1375H218.799C219.005 37.1375 219.223 37.1602 219.452 37.2063C219.681 37.2531 219.908 37.3275 220.133 37.4308C220.359 37.5335 220.573 37.6633 220.776 37.8214C220.98 37.9788 221.161 38.1707 221.319 38.3952C221.477 38.6203 221.602 38.8798 221.694 39.1744C221.787 39.4684 221.833 39.8005 221.833 40.1708V43.9545Z" fill="#1F1F1F"/>
<path d="M229.82 41.6518C229.82 41.9335 229.784 42.1863 229.713 42.4114C229.642 42.6365 229.547 42.8339 229.429 43.0043C229.311 43.1746 229.175 43.3198 229.019 43.4391C228.864 43.5596 228.701 43.6568 228.53 43.7325C228.36 43.8081 228.188 43.8641 228.014 43.8997C227.839 43.9354 227.674 43.9533 227.518 43.9533H223.079V42.3136H227.506C227.729 42.3136 227.897 42.257 228.01 42.1432C228.124 42.03 228.181 41.8658 228.181 41.6518C228.159 41.2145 227.938 40.9962 227.518 40.9962H224.977C224.615 40.9962 224.308 40.9322 224.056 40.8061C223.804 40.6801 223.599 40.5226 223.441 40.3332C223.283 40.1444 223.17 39.9408 223.101 39.7212C223.031 39.5035 222.996 39.2993 222.996 39.1099C222.996 38.7439 223.062 38.4358 223.192 38.1861C223.323 37.9358 223.486 37.7334 223.684 37.5772C223.882 37.4222 224.096 37.3091 224.327 37.2402C224.558 37.1707 224.775 37.1362 224.977 37.1362H229.007V38.7759H224.989C224.905 38.7759 224.839 38.7851 224.791 38.8042C224.742 38.8227 224.707 38.8479 224.683 38.8798C224.66 38.9112 224.647 38.945 224.643 38.9807C224.638 39.0164 224.636 39.0508 224.636 39.0847C224.64 39.1523 224.653 39.2046 224.675 39.2421C224.695 39.2809 224.721 39.3073 224.753 39.3245C224.785 39.3411 224.82 39.351 224.86 39.3528C224.9 39.3553 224.939 39.3565 224.977 39.3565H227.518C227.938 39.3565 228.296 39.4321 228.59 39.5834C228.885 39.7347 229.122 39.9242 229.303 40.1536C229.483 40.383 229.615 40.6321 229.697 40.9008C229.779 41.1702 229.82 41.4206 229.82 41.6518Z" fill="#1F1F1F"/>
<path d="M238.519 41.6518C238.519 41.9335 238.482 42.1863 238.411 42.4114C238.34 42.6365 238.245 42.8339 238.127 43.0043C238.01 43.1746 237.873 43.3198 237.718 43.4391C237.562 43.5596 237.399 43.6568 237.229 43.7325C237.058 43.8081 236.887 43.8641 236.715 43.8997C236.542 43.9354 236.379 43.9533 236.223 43.9533H233.265V42.3136H236.223C236.442 42.3136 236.606 42.257 236.715 42.1432C236.824 42.03 236.879 41.8658 236.879 41.6518V39.4438C236.879 39.2169 236.823 39.0496 236.712 38.9395C236.6 38.8306 236.437 38.7759 236.223 38.7759H233.278C233.055 38.7759 232.887 38.8313 232.774 38.9432C232.66 39.0539 232.603 39.2169 232.603 39.4321V46.085H230.964V39.4321C230.964 39.1505 230.999 38.8977 231.071 38.675C231.142 38.4524 231.238 38.2556 231.357 38.0852C231.478 37.9149 231.615 37.7697 231.77 37.6498C231.926 37.5305 232.089 37.4327 232.259 37.357C232.43 37.2814 232.602 37.2254 232.777 37.1897C232.951 37.1541 233.114 37.1362 233.265 37.1362H236.223C236.505 37.1362 236.757 37.1719 236.98 37.2432C237.202 37.3146 237.399 37.4099 237.57 37.5268C237.739 37.6449 237.885 37.7814 238.004 37.937C238.124 38.0926 238.223 38.2556 238.298 38.426C238.374 38.5957 238.429 38.7679 238.465 38.9395C238.501 39.1123 238.519 39.2765 238.519 39.4321V41.6518Z" fill="#1F1F1F"/>
<path d="M245.654 39.4438C245.654 39.2169 245.597 39.049 245.484 38.9395C245.37 38.8306 245.206 38.7759 244.991 38.7759H242.047C241.828 38.7759 241.662 38.8313 241.548 38.9432C241.435 39.0539 241.378 39.2169 241.378 39.4315V41.6518C241.378 41.8658 241.435 42.03 241.548 42.1432C241.662 42.257 241.828 42.3136 242.047 42.3136H244.991C245.214 42.3136 245.381 42.257 245.49 42.1432C245.599 42.03 245.654 41.8658 245.654 41.6518V39.4438ZM247.293 41.6518C247.293 41.9335 247.257 42.1863 247.186 42.4114C247.115 42.6359 247.02 42.8339 246.902 43.0043C246.785 43.174 246.648 43.3198 246.493 43.4391C246.337 43.559 246.174 43.6568 246.004 43.7325C245.833 43.8081 245.661 43.8641 245.487 43.8997C245.312 43.9354 245.147 43.9533 244.991 43.9533H242.034C241.807 43.9533 241.559 43.9139 241.29 43.8333C241.021 43.754 240.772 43.6224 240.542 43.4391C240.313 43.2564 240.122 43.0184 239.968 42.7269C239.815 42.4341 239.738 42.0762 239.738 41.6518V39.4315C239.738 39.0115 239.815 38.6547 239.968 38.3626C240.122 38.0705 240.313 37.8331 240.542 37.6498C240.772 37.4671 241.021 37.3355 241.29 37.2555C241.559 37.1756 241.807 37.1362 242.034 37.1362H244.991C245.411 37.1362 245.769 37.2119 246.064 37.3632C246.358 37.5145 246.595 37.7045 246.776 37.9339C246.957 38.1627 247.089 38.4118 247.17 38.6812C247.253 38.95 247.293 39.2003 247.293 39.4315V41.6518Z" fill="#1F1F1F"/>
<path d="M254.612 38.7771H250.923C250.7 38.7771 250.532 38.8325 250.419 38.9438C250.305 39.0551 250.248 39.2181 250.248 39.4328V43.9545H248.608V39.4328C248.608 39.1511 248.644 38.8989 248.715 38.6763C248.787 38.4536 248.883 38.2562 249.003 38.0864C249.123 37.9161 249.26 37.7709 249.416 37.651C249.571 37.5317 249.734 37.4333 249.905 37.3576C250.075 37.282 250.247 37.2266 250.422 37.191C250.596 37.1547 250.758 37.1375 250.91 37.1375H254.612V38.7771Z" fill="#1F1F1F"/>
<path d="M262.17 38.7769H259.307V43.9542H257.648V38.7769H255.517V37.1372H257.648V34.9108H259.307V37.1372H262.17V38.7769Z" fill="#1F1F1F"/>
<path d="M270 41.6518C270 41.9335 269.964 42.1863 269.892 42.4114C269.821 42.6365 269.726 42.8339 269.608 43.0043C269.491 43.1746 269.354 43.3198 269.199 43.4391C269.043 43.5596 268.881 43.6568 268.71 43.7325C268.54 43.8081 268.368 43.8641 268.193 43.8997C268.018 43.9354 267.854 43.9533 267.698 43.9533H263.258V42.3136H267.685C267.908 42.3136 268.076 42.257 268.19 42.1432C268.303 42.03 268.36 41.8658 268.36 41.6518C268.339 41.2145 268.118 40.9962 267.698 40.9962H265.157C264.794 40.9962 264.487 40.9322 264.235 40.8061C263.983 40.6801 263.778 40.5226 263.621 40.3332C263.463 40.1444 263.35 39.9408 263.28 39.7212C263.211 39.5035 263.176 39.2993 263.176 39.1099C263.176 38.7439 263.241 38.4358 263.372 38.1861C263.502 37.9358 263.666 37.7334 263.863 37.5772C264.061 37.4222 264.275 37.3091 264.507 37.2402C264.738 37.1707 264.955 37.1362 265.157 37.1362H269.186V38.7759H265.169C265.085 38.7759 265.018 38.7851 264.97 38.8042C264.922 38.8227 264.887 38.8479 264.863 38.8798C264.84 38.9112 264.826 38.945 264.822 38.9807C264.818 39.0164 264.815 39.0508 264.815 39.0847C264.82 39.1523 264.832 39.2046 264.854 39.2421C264.874 39.2809 264.901 39.3073 264.933 39.3245C264.964 39.3411 265 39.351 265.04 39.3528C265.08 39.3553 265.118 39.3565 265.157 39.3565H267.698C268.118 39.3565 268.475 39.4321 268.77 39.5834C269.065 39.7347 269.301 39.9242 269.482 40.1536C269.663 40.383 269.795 40.6321 269.877 40.9008C269.959 41.1702 270 41.4206 270 41.6518Z" fill="#1F1F1F"/>
<path d="M10.3751 27.2612C8.42241 27.2612 6.8344 28.8499 6.8344 30.8026C6.8344 32.7553 8.42241 34.3433 10.3751 34.3433C12.3279 34.3433 13.9165 32.7553 13.9165 30.8026C13.9165 28.8499 12.3279 27.2612 10.3751 27.2612Z" fill="#1F1F1F"/>
<path d="M36.8817 27.2612C34.9289 27.2612 33.3403 28.8499 33.3403 30.8026C33.3403 32.7553 34.9289 34.3433 36.8817 34.3433C38.8344 34.3433 40.423 32.7553 40.423 30.8026C40.423 28.8499 38.8344 27.2612 36.8817 27.2612Z" fill="#1F1F1F"/>
<path d="M36.8818 36.0153C34.0028 36.0153 31.6688 33.6813 31.6688 30.8023C31.6688 27.9233 34.0028 25.5893 36.8818 25.5893C39.7607 25.5893 42.0948 27.9233 42.0948 30.8023C42.0948 33.6813 39.7607 36.0153 36.8818 36.0153ZM27.9128 33.5626H19.3859C18.9862 33.5626 18.6418 33.2784 18.5655 32.8854L18.5452 32.7808C18.1602 30.7961 17.6805 28.3256 15.2886 25.2067C13.2184 22.5067 9.56572 21.8899 7.63329 22.3142C7.34238 22.3782 7.03794 22.2816 6.83621 22.0608C6.63509 21.84 6.56682 21.5288 6.65723 21.2441C8.40085 15.7684 12.0111 11.8993 16.5629 10.6292C17.007 10.5044 17.4689 10.7645 17.5931 11.2092C17.7167 11.6545 17.4572 12.1151 17.0119 12.2394C13.3562 13.2597 10.3726 16.2457 8.68869 20.5177C11.3259 20.4538 14.6225 21.5909 16.6152 24.1888C19.0089 27.3108 19.6744 29.908 20.0742 31.8903H27.1317C27.5468 27.7142 29.9307 24.8838 31.3735 23.5289C32.7531 22.233 35.4727 20.3264 38.2607 19.1148C35.8172 18.6111 34.4832 18.8122 33.7642 19.1271L33.4702 19.2557C31.6054 20.0761 30.133 20.7244 27.0892 20.2649C24.1961 19.8283 23.546 19.4137 21.9266 18.1701L21.7083 18.0028C19.3343 16.186 15.3107 17.1775 14.1096 17.878C13.711 18.1105 13.1987 17.9758 12.9662 17.5772C12.7338 17.1787 12.8684 16.667 13.267 16.4339C15.0198 15.4117 19.7445 14.3945 22.7243 16.675L22.9451 16.8441C24.3554 17.9272 24.7343 18.2181 27.3389 18.6117C29.903 18.9986 31.0543 18.4924 32.7967 17.7255L33.0938 17.5951C34.8429 16.83 37.6241 17.0354 41.3586 18.2058L41.3906 18.2157C41.751 18.3282 41.9909 18.6683 41.9761 19.0453C41.9619 19.4223 41.6969 19.7428 41.3291 19.8277C38.0952 20.5755 34.1603 23.2054 32.5187 24.7473C31.1718 26.0118 28.8913 28.7346 28.748 32.7562C28.732 33.2058 28.3623 33.5626 27.9128 33.5626ZM10.3751 36.0153C7.49614 36.0153 5.1627 33.6813 5.1627 30.8023C5.1627 27.9233 7.49614 25.5893 10.3751 25.5893C13.2541 25.5893 15.5881 27.9233 15.5881 30.8023C15.5881 33.6813 13.2541 36.0153 10.3751 36.0153ZM11.3739 0.226562C5.09259 0.226562 0.00012207 5.31842 0.00012207 11.5997V47.6173H36.017C42.299 47.6173 47.3908 42.5248 47.3908 36.2435V0.226562H11.3739Z" fill="#1F1F1F"/>
</svg>
