<svg width="28" height="40" viewBox="0 0 28 40" fill="none" xmlns="http://www.w3.org/2000/svg">
<mask id="path-1-inside-1_306_1059" fill="white">
<path d="M28 13.75C28 27.5 14 40 14 40C14 40 0 27.5 0 13.75C0 6.15608 6.26801 0 14 0C21.732 0 28 6.15608 28 13.75Z"/>
</mask>
<path d="M14 40L10.6699 43.7297L14 46.703L17.3301 43.7297L14 40ZM23 13.75C23 19.0466 20.2361 24.5514 16.9473 29.1028C15.3561 31.305 13.7565 33.1268 12.5561 34.395C11.9585 35.0264 11.4666 35.5135 11.1333 35.8345C10.9668 35.9948 10.8404 36.1132 10.7608 36.1869C10.7211 36.2237 10.693 36.2493 10.6776 36.2633C10.6699 36.2703 10.6653 36.2744 10.664 36.2756C10.6633 36.2762 10.6635 36.2761 10.6645 36.2752C10.665 36.2747 10.6657 36.2741 10.6666 36.2733C10.667 36.2729 10.6679 36.2722 10.6681 36.2719C10.669 36.2712 10.6699 36.2703 14 40C17.3301 43.7297 17.3311 43.7288 17.3322 43.7278C17.3327 43.7274 17.3338 43.7263 17.3347 43.7256C17.3365 43.724 17.3384 43.7222 17.3406 43.7202C17.345 43.7163 17.3502 43.7116 17.3563 43.7062C17.3685 43.6952 17.384 43.6812 17.4027 43.6641C17.4403 43.63 17.4908 43.5838 17.5536 43.5257C17.6791 43.4095 17.8535 43.2459 18.0699 43.0376C18.5022 42.6212 19.104 42.0244 19.8189 41.2691C21.2435 39.7639 23.1439 37.6012 25.0527 34.9597C28.7639 29.8236 33 22.2034 33 13.75H23ZM14 40C17.3301 36.2703 17.331 36.2712 17.3319 36.2719C17.3321 36.2722 17.333 36.2729 17.3334 36.2733C17.3343 36.2741 17.335 36.2747 17.3355 36.2752C17.3365 36.2761 17.3367 36.2762 17.336 36.2756C17.3347 36.2744 17.3301 36.2703 17.3224 36.2633C17.307 36.2493 17.2789 36.2237 17.2392 36.1869C17.1596 36.1132 17.0332 35.9948 16.8667 35.8345C16.5334 35.5135 16.0415 35.0264 15.4439 34.395C14.2435 33.1268 12.6439 31.305 11.0527 29.1028C7.76391 24.5514 5 19.0466 5 13.75H-5C-5 22.2034 -0.763913 29.8236 2.94729 34.9597C4.85606 37.6012 6.75649 39.7639 8.18112 41.2691C8.896 42.0244 9.49784 42.6212 9.93014 43.0376C10.1465 43.2459 10.3209 43.4095 10.4464 43.5257C10.5092 43.5838 10.5597 43.63 10.5973 43.6641C10.616 43.6812 10.6315 43.6952 10.6437 43.7062C10.6498 43.7116 10.655 43.7163 10.6594 43.7202C10.6616 43.7222 10.6635 43.724 10.6653 43.7256C10.6662 43.7263 10.6673 43.7274 10.6678 43.7278C10.6689 43.7288 10.6699 43.7297 14 40ZM5 13.75C5 9.00206 8.94412 5 14 5V-5C3.59191 -5 -5 3.31011 -5 13.75H5ZM14 5C19.0559 5 23 9.00206 23 13.75H33C33 3.31011 24.4081 -5 14 -5V5Z" fill="#50BCEA" mask="url(#path-1-inside-1_306_1059)"/>
</svg>
