<svg width="38" height="38" viewBox="0 0 38 38" fill="none" xmlns="http://www.w3.org/2000/svg">
<path fill-rule="evenodd" clip-rule="evenodd" d="M9.5 19C9.5 13.7533 13.7533 9.5 19 9.5C24.2467 9.5 28.5 13.7533 28.5 19C28.5 24.2467 24.2467 28.5 19 28.5C17.9584 28.5 16.955 28.3322 16.0159 28.0217L13.1581 28.9743C13.0056 29.0252 12.838 28.9996 12.7076 28.9056C12.5773 28.8116 12.5 28.6607 12.5 28.5V25.9282C10.6541 24.1958 9.5 21.7324 9.5 19ZM21.7767 21.0377L24.4267 17.1182C24.689 16.7321 24.1916 16.3125 23.8117 16.5895L20.9536 18.6038C20.8597 18.6691 20.7454 18.7045 20.628 18.7045C20.5106 18.7045 20.3963 18.6691 20.3024 18.6038L18.186 17.1266C17.5529 16.6902 16.6484 16.8496 16.2233 17.4623L13.5733 21.3818C13.311 21.7679 13.8084 22.1875 14.1883 21.9105L17.0464 19.8962C17.1403 19.8309 17.2546 19.7955 17.372 19.7955C17.4894 19.7955 17.6037 19.8309 17.6976 19.8962L19.814 21.3482C20.4471 21.8098 21.3516 21.6504 21.7767 21.0377Z" fill="white"/>
<rect x="0.5" y="0.5" width="37" height="37" stroke="white"/>
</svg>
