<svg width="144" height="68" viewBox="0 0 144 68" fill="none" xmlns="http://www.w3.org/2000/svg">
<path fill-rule="evenodd" clip-rule="evenodd" d="M72.0592 0C56.867 0 44.8811 14.2885 44.8811 14.2885L72.1355 47.9359L99.3901 14.2885C99.385 14.2885 99.3287 14.2265 99.2234 14.1107C97.7301 12.4683 86.3936 0 72.0592 0ZM55.6455 18.2832C55.6455 9.14165 63.0508 1.69 72.1355 1.69H72.2883C71.8302 2.07409 66.2572 7.06745 66.5625 12.2913C66.7152 13.8277 67.326 15.2872 68.3948 16.4396C70.227 18.5137 70.3798 22.5084 62.3636 30.7281C62.211 30.8817 61.9819 31.0353 61.8292 31.2658C57.9358 28.1162 55.6455 23.3533 55.6455 18.2832ZM79.1592 33.34C79.4645 32.4949 79.5409 32.1109 79.5409 32.1109C79.5409 32.1109 82.1366 20.7415 78.8538 16.5163C78.2431 15.5177 77.4033 14.7495 76.3344 14.2885C74.5022 13.3667 72.0592 11.3694 72.1355 8.14298C72.1355 5.91516 72.8227 3.68734 74.1206 1.84372C83.1291 2.99601 89.5419 11.2157 88.473 20.3574C87.786 25.9652 84.2742 30.8817 79.1592 33.34Z" fill="#E2000F"/>
<path fill-rule="evenodd" clip-rule="evenodd" d="M142.121 59.7803L141.587 58.628C141.892 58.5512 142.121 58.2439 142.121 57.9367C142.121 57.4757 141.739 57.0916 141.281 57.0916H140.213V59.7803H140.823V58.7048H141.129L141.587 59.7803H142.121ZM141.434 57.8598C141.434 58.0903 141.281 58.2439 141.052 58.2439H140.671V57.5526H141.052C141.177 57.5526 141.278 57.5978 141.345 57.6637C141.402 57.7193 141.434 57.7895 141.434 57.8598Z" fill="#E2000F"/>
<path fill-rule="evenodd" clip-rule="evenodd" d="M143.495 58.3975C143.495 57.0147 142.35 55.8624 140.976 55.8624C139.602 55.8624 138.457 57.0147 138.457 58.3975C138.457 59.7803 139.602 60.9326 140.976 60.9326C142.35 60.9326 143.495 59.8571 143.495 58.3975ZM142.885 58.3975C142.885 59.473 141.968 60.3181 140.9 60.3181C139.831 60.3181 138.991 59.3962 138.991 58.3207C138.991 57.2452 139.907 56.4002 140.9 56.4002C141.968 56.4002 142.808 57.2452 142.808 58.3207C142.885 58.3207 142.885 58.3975 142.885 58.3975Z" fill="#E2000F"/>
<path d="M20.5066 56.7075L17.5292 59.7803C16.155 59.1657 14.7044 58.8585 13.1013 58.7816C12.4142 58.7816 11.3454 58.9352 11.1927 59.3962C11.1216 59.8254 11.9113 59.9216 12.5134 59.9948L12.6432 60.0107L14.3991 60.2412C17.6056 60.7021 19.7432 61.7007 19.1324 63.6981C18.369 66.6172 13.1776 68 8.52069 68C5.84872 68 3.10036 67.6928 0.504669 66.9246L3.86379 63.5445L4.2455 63.6981C5.61967 64.3895 7.2229 64.7736 8.82613 64.7736C9.58955 64.7736 10.8873 64.6199 11.04 64.0822C11.2544 63.5789 10.3316 63.4794 9.6493 63.4058L9.51316 63.3909L7.98632 63.2371C5.00892 62.9299 2.71865 61.9312 3.25303 60.0875C4.09283 57.2452 9.20784 55.632 13.9411 55.632C16.155 55.632 18.369 55.9392 20.5066 56.7075Z" fill="#E2000F"/>
<path d="M38.7526 55.7856L37.6838 59.5498H33.3322L30.9657 67.7695H23.1023L25.4689 59.5498H21.1174L22.1861 55.7856H38.7526Z" fill="#E2000F"/>
<path fill-rule="evenodd" clip-rule="evenodd" d="M57.3803 67.8464H49.0589L48.7536 66.3868H42.7988L41.7299 67.8464H33.4086L44.402 55.8624H53.1052L57.3803 67.8464ZM45.089 63.4676H48.2191L47.9138 59.5498H47.6083L45.089 63.4676Z" fill="#E2000F"/>
<path d="M70.3586 55.8624C77.6112 55.8624 82.7262 57.6293 81.4284 62.0081C80.3596 65.5418 75.1683 67.8464 69.0608 67.8464H59.0599L60.8922 61.3935H68.7555L67.9157 64.2358H68.3738C70.9694 64.2358 73.1834 63.6212 73.6414 62.0081C74.0995 60.318 72.5726 59.6266 69.6716 59.6266H61.2739L62.3426 55.8624H70.3586Z" fill="#E2000F"/>
<path d="M90.666 64.0054H97.3077L96.239 67.8464H81.7338L85.1693 55.8624H93.0325L90.666 64.0054Z" fill="#E2000F"/>
<path d="M116.546 55.7856L115.63 59.0888L108.912 59.0121L108.607 60.1644H113.569L112.653 63.314H107.691L107.385 64.4663H114.256L113.34 67.7695H98.5292L101.965 55.7856H116.546Z" fill="#E2000F"/>
<path fill-rule="evenodd" clip-rule="evenodd" d="M119.218 55.8624H128.761C133.647 55.8624 137.464 57.0147 136.625 60.0107C136.09 61.8544 134.563 62.6227 131.51 63.1604L136.166 67.8464H127.082L124.562 64.0054L123.494 67.8464H115.783L119.218 55.8624ZM126.013 61.3935C127.692 61.3935 129.372 61.2399 129.677 60.0875C129.983 58.9352 128.532 58.7816 126.853 58.7816H126.089L125.326 61.3935H126.013Z" fill="#E2000F"/>
</svg>
