<svg width="598" height="182" viewBox="0 0 598 182" fill="none" xmlns="http://www.w3.org/2000/svg">
<path d="M49.9978 55.9908H3.68759C2.95833 55.9908 2.32586 55.8605 1.78827 55.6008C1.25354 55.3411 0.833809 54.9837 0.533865 54.5266C0.233921 54.0733 0.0585563 53.5309 0.0116003 52.9061C-0.0363141 52.2803 0.0643058 51.6057 0.311544 50.8755L17.5904 0H27.7425L12.1723 45.8387H53.4448L49.9978 55.9908Z" fill="white"/>
<path d="M111.126 33.1112H79.0685L82.5422 22.8806H114.603L111.126 33.1112ZM107.924 55.9913H71.2967C69.8919 55.9913 68.4401 55.745 66.9423 55.2496C65.4435 54.757 64.1786 53.9415 63.1436 52.8088C62.1116 51.6781 61.4273 50.2052 61.0891 48.3978C60.7546 46.5876 61.0325 44.3702 61.9237 41.7406L74.3652 5.11391C74.6057 4.41244 74.9603 3.74739 75.4346 3.12355C75.9071 2.49874 76.4495 1.95252 77.0647 1.48392C77.677 1.01532 78.344 0.650207 79.056 0.390511C79.7709 0.129857 80.4886 0.000488281 81.2179 0.000488281H126.941L123.495 10.1526H82.8077L72.0758 41.7406C71.6264 43.0669 71.6341 44.0836 72.0979 44.7851C72.5636 45.4894 73.4711 45.8392 74.8252 45.8392H111.37L107.924 55.9913Z" fill="white"/>
<path d="M184.791 10.1521H162.417L146.847 55.9908H136.696L152.266 10.1521H129.853L133.302 0H188.239L184.791 10.1521Z" fill="white"/>
<path d="M192.8 22.0223H185.692L195.972 2.34192H205.576L192.8 22.0223Z" fill="white"/>
<path d="M255.12 39.5143C254.438 41.5181 253.574 43.3215 252.521 44.9228C251.468 46.5241 250.319 47.9367 249.072 49.1575C247.823 50.3832 246.493 51.4258 245.083 52.2815C243.672 53.1421 242.276 53.8435 240.892 54.3917C239.508 54.937 238.153 55.3414 236.828 55.602C235.504 55.8617 234.295 55.9911 233.204 55.9911H194.037L197.486 45.8399H236.651C238.603 45.8399 240.312 45.2669 241.784 44.1217C243.252 42.9766 244.314 41.4414 244.968 39.5143C245.285 38.5771 245.436 37.7184 245.414 36.9374C245.391 36.1564 245.211 35.4799 244.873 34.9068C244.534 34.3347 244.034 33.892 243.372 33.5796C242.711 33.2672 241.912 33.111 240.975 33.111H217.624C215.985 33.111 214.313 32.8178 212.612 32.2322C210.912 31.6467 209.467 30.7047 208.283 29.4024C207.098 28.1011 206.323 26.3944 205.958 24.2861C205.596 22.1789 205.93 19.6001 206.965 16.5556C208 13.5102 209.412 10.9401 211.207 8.84428C212.996 6.74946 214.931 5.04275 217.005 3.72894C219.076 2.41321 221.163 1.46451 223.263 0.878036C225.362 0.292522 227.231 0.000244141 228.871 0.000244141H263.425L259.976 10.1523H225.422C223.498 10.1523 221.793 10.7369 220.313 11.9108C218.839 13.079 217.772 14.6295 217.117 16.5556C216.455 18.5086 216.47 20.0505 217.164 21.1822C217.859 22.3159 219.174 22.8813 221.098 22.8813H244.526C245.611 22.9072 246.72 23.0557 247.85 23.3307C248.98 23.6029 250.054 24.0264 251.069 24.5995C252.083 25.1716 252.991 25.8932 253.788 26.7671C254.585 27.6382 255.2 28.6866 255.633 29.9103C256.059 31.1331 256.252 32.5389 256.207 34.1258C256.162 35.7147 255.8 37.5095 255.12 39.5143Z" fill="white"/>
<path d="M135.001 96.1151H102.941L106.417 85.8845H138.475L135.001 96.1151ZM131.797 118.995H95.1714C93.7666 118.995 92.3119 118.751 90.8179 118.254C89.3153 117.761 88.0504 116.946 87.0164 115.814C85.9843 114.682 85.2992 113.21 84.9647 111.403C84.6274 109.592 84.9043 107.374 85.7965 104.745L98.238 68.1178C98.4775 67.4163 98.8321 66.7523 99.3074 66.1275C99.7798 65.5026 100.322 64.9564 100.936 64.4878C101.552 64.0192 102.217 63.6541 102.931 63.3944C103.644 63.1338 104.36 63.0044 105.091 63.0044H150.815L147.367 73.1565H106.68L95.9486 104.745C95.4982 106.07 95.5059 107.089 95.9707 107.789C96.4354 108.493 97.3429 108.844 98.697 108.844H135.246L131.797 118.995Z" fill="white"/>
<path d="M198.574 114.662C198.326 115.391 197.961 116.067 197.475 116.692C196.99 117.316 196.44 117.858 195.832 118.313C195.223 118.768 194.56 119.126 193.847 119.385C193.133 119.648 192.423 119.777 191.724 119.777C191.099 119.777 190.504 119.658 189.947 119.428C189.389 119.191 188.95 118.813 188.631 118.293L164.697 79.5589L151.301 118.995H141.149L158.696 67.3369C159.049 66.2981 159.661 65.3533 160.536 64.5071C161.408 63.6619 162.371 63.0294 163.423 62.6135C164.52 62.2235 165.541 62.1258 166.491 62.3193C167.442 62.5158 168.148 62.9921 168.623 63.7443L192.573 102.441L205.969 63.0045H216.121L198.574 114.662Z" fill="white"/>
<path d="M260.696 104.745C260.007 106.776 259.012 108.661 257.717 110.405C256.423 112.15 254.928 113.66 253.229 114.934C251.534 116.211 249.695 117.205 247.708 117.921C245.718 118.638 243.699 118.995 241.643 118.995H204.432L207.879 108.843H245.092C246.341 108.843 247.439 108.486 248.385 107.769C249.33 107.054 250.025 106.047 250.465 104.745L264.646 63.0035H274.871L260.696 104.745Z" fill="white"/>
<path d="M326.811 85.6509C327.493 83.6471 327.792 81.8312 327.706 80.203C327.621 78.5768 327.195 77.1844 326.431 76.0268C325.666 74.8673 324.579 73.9703 323.169 73.3311C321.758 72.6939 320.078 72.3748 318.126 72.3748H304.38C302.4 72.3748 300.489 72.6939 298.647 73.3311C296.803 73.9703 295.098 74.8673 293.536 76.0268C291.971 77.1844 290.592 78.5768 289.402 80.203C288.213 81.8312 287.276 83.6471 286.593 85.6509L282.96 96.3492C282.279 98.353 281.985 100.169 282.067 101.797C282.152 103.423 282.585 104.817 283.364 105.974C284.139 107.134 285.234 108.029 286.643 108.669C288.056 109.306 289.747 109.626 291.727 109.626H305.392C307.372 109.626 309.284 109.306 311.126 108.669C312.97 108.029 314.674 107.134 316.239 105.974C317.804 104.817 319.18 103.423 320.369 101.797C321.561 100.169 322.497 98.353 323.177 96.3492L326.811 85.6509ZM333.328 96.3492C332.171 99.7588 330.521 102.897 328.378 105.757C326.233 108.624 323.763 111.098 320.975 113.18C318.185 115.262 315.169 116.881 311.926 118.041C308.681 119.198 305.382 119.777 302.024 119.777H288.278C284.918 119.777 282.007 119.198 279.536 118.041C277.066 116.881 275.144 115.262 273.77 113.18C272.392 111.098 271.6 108.624 271.39 105.757C271.178 102.897 271.65 99.7588 272.807 96.3492L276.441 85.6509C277.591 82.2672 279.248 79.1355 281.41 76.2606C283.572 73.3838 286.043 70.9105 288.83 68.8416C291.617 66.7707 294.638 65.1502 297.9 63.9821C301.16 62.8072 304.47 62.2236 307.828 62.2236H321.575C324.931 62.2236 327.835 62.8072 330.289 63.9821C332.741 65.1502 334.657 66.7707 336.035 68.8416C337.414 70.9105 338.205 73.3838 338.396 76.2606C338.592 79.1355 338.112 82.2672 336.962 85.6509L333.328 96.3492Z" fill="white"/>
<path d="M401.567 81.7457C400.783 84.0619 399.783 86.1328 398.581 87.9526C397.376 89.7771 396.054 91.3842 394.619 92.7756C393.182 94.169 391.652 95.3601 390.025 96.3481C388.404 97.338 386.792 98.1516 385.197 98.7889C383.6 99.4281 382.043 99.889 380.529 100.175C379.009 100.462 377.63 100.604 376.38 100.604H372.28L366.034 118.995H355.804L362.05 100.604H357.988C356.739 100.604 355.451 100.462 354.132 100.175C352.812 99.889 351.562 99.4281 350.386 98.7889C349.208 98.1516 348.152 97.338 347.214 96.3481C346.275 95.3601 345.552 94.169 345.049 92.7756C344.545 91.3842 344.315 89.7704 344.35 87.9344C344.39 86.0992 344.798 84.036 345.574 81.7457L351.943 63.0035H362.095L355.726 81.7457C355.277 83.073 355.079 84.2632 355.14 85.3192C355.196 86.3714 355.474 87.2789 355.974 88.034C356.471 88.7882 357.193 89.366 358.136 89.7704C359.077 90.1729 360.213 90.3751 361.539 90.3751H379.854C380.868 90.2189 381.929 90.0167 383.028 89.7704C384.128 89.5222 385.195 89.1006 386.229 88.5026C387.266 87.9037 388.242 87.07 389.148 86.0034C390.058 84.9359 390.815 83.5167 391.415 81.7457L397.784 63.0035H407.936L401.567 81.7457Z" fill="white"/>
<path d="M229.983 136.16H207.61L192.041 182H181.889L197.459 136.16H175.046L178.496 126.008H233.432L229.983 136.16Z" fill="white"/>
<path d="M243.179 148.888H278.83L286.602 126.008H296.754L277.736 182H267.584L275.356 159.117H239.702L231.933 182H221.781L240.8 126.008H250.952L243.179 148.888Z" fill="white"/>
<path d="M342.89 159.117H310.835L314.309 148.888H346.367L342.89 159.117ZM339.688 182H303.063C301.659 182 300.204 181.753 298.709 181.255C297.209 180.763 295.945 179.95 294.91 178.817C293.875 177.686 293.191 176.214 292.856 174.405C292.519 172.595 292.796 170.379 293.69 167.749L306.132 131.122C306.37 130.421 306.724 129.756 307.199 129.131C307.671 128.507 308.213 127.959 308.829 127.49C309.444 127.022 310.108 126.657 310.823 126.397C311.535 126.138 312.254 126.008 312.985 126.008H358.707L355.259 136.159H314.572L303.843 167.749C303.392 169.075 303.398 170.091 303.862 170.791C304.327 171.495 305.237 171.848 306.592 171.848H343.135L339.688 182Z" fill="white"/>
<path d="M444.071 144.827C443.283 147.143 442.294 149.216 441.104 151.037C439.909 152.859 438.592 154.466 437.143 155.859C435.693 157.25 434.161 158.442 432.551 159.429C430.939 160.419 429.327 161.234 427.718 161.871C426.111 162.508 424.549 162.971 423.032 163.256C421.515 163.543 420.136 163.688 418.886 163.688L433.867 182H418.169L403.226 163.688H395.923L399.371 153.537H422.332C423.645 153.432 424.899 153.164 426.099 152.734C427.298 152.305 428.405 151.725 429.422 150.997C430.437 150.267 431.329 149.39 432.094 148.361C432.859 147.334 433.466 146.154 433.919 144.827L436.093 138.424C436.288 137.852 436.365 137.417 436.323 137.115C436.281 136.817 436.175 136.594 436.003 136.452C435.83 136.307 435.623 136.224 435.386 136.2C435.146 136.175 434.923 136.16 434.716 136.16H401.214L385.644 182H375.493L392.774 131.122C393.012 130.421 393.367 129.756 393.839 129.132C394.311 128.507 394.857 127.959 395.471 127.49C396.085 127.022 396.748 126.658 397.462 126.398C398.174 126.138 398.897 126.008 399.627 126.008H438.165C440.429 126.008 442.204 126.418 443.488 127.238C444.769 128.057 445.687 129.087 446.247 130.321C446.803 131.559 447.052 132.893 446.994 134.325C446.937 135.758 446.696 137.097 446.272 138.346L444.071 144.827Z" fill="white"/>
<path d="M451.53 182H441.378L460.398 126.008H470.55L451.53 182Z" fill="white"/>
<path d="M519.601 149.435C520.273 147.457 520.569 145.646 520.486 144.01C520.406 142.365 519.979 140.968 519.199 139.811C518.422 138.652 517.327 137.754 515.917 137.115C514.506 136.479 512.814 136.159 510.835 136.159H488.462L476.338 171.848H498.71C500.69 171.848 502.602 171.529 504.444 170.892C506.288 170.251 507.992 169.356 509.557 168.197C511.121 167.04 512.501 165.646 513.69 164.019C514.88 162.391 515.815 160.576 516.497 158.573L519.601 149.435ZM526.648 158.573C525.492 161.981 523.832 165.121 521.676 167.979C519.519 170.846 517.049 173.313 514.265 175.379C511.476 177.451 508.454 179.069 505.193 180.242C501.929 181.413 498.622 182 495.264 182H467.855C467.125 182 466.491 181.87 465.956 181.608C465.419 181.347 465.001 180.99 464.701 180.536C464.399 180.081 464.224 179.538 464.177 178.913C464.129 178.289 464.229 177.614 464.477 176.885L480.021 131.122C480.259 130.421 480.613 129.756 481.087 129.132C481.558 128.507 482.1 127.959 482.719 127.49C483.333 127.022 483.995 126.657 484.71 126.397C485.422 126.138 486.144 126.008 486.875 126.008H514.283C517.641 126.008 520.551 126.593 523.017 127.765C525.485 128.934 527.406 130.556 528.786 132.625C530.165 134.695 530.958 137.166 531.165 140.046C531.373 142.92 530.9 146.052 529.753 149.435L526.648 158.573Z" fill="white"/>
<path d="M581.795 159.117H549.734L553.211 148.888H585.269L581.795 159.117ZM578.59 182H541.964C540.561 182 539.105 181.753 537.611 181.255C536.111 180.763 534.844 179.95 533.809 178.817C532.777 177.686 532.093 176.214 531.758 174.405C531.42 172.595 531.698 170.379 532.592 167.749L545.034 131.122C545.272 130.421 545.626 129.756 546.1 129.131C546.573 128.507 547.116 127.959 547.731 127.49C548.345 127.022 549.01 126.657 549.725 126.397C550.437 126.138 551.156 126.008 551.887 126.008H597.609L594.16 136.159H553.474L542.745 167.749C542.291 169.075 542.299 170.091 542.765 170.791C543.229 171.495 544.136 171.848 545.491 171.848H582.039L578.59 182Z" fill="white"/>
</svg>
